<?xml version="1.0" standalone="no"?>
<!DOCTYPE svg PUBLIC "-//W3C//DTD SVG 1.1//EN" "http://www.w3.org/Graphics/SVG/1.1/DTD/svg11.dtd" >
<svg xmlns="http://www.w3.org/2000/svg">
<metadata>Generated by IcoMoon</metadata>
<defs>
<font id="icomoon" horiz-adv-x="1024">
<font-face units-per-em="1024" ascent="960" descent="-64" />
<missing-glyph horiz-adv-x="1024" />
<glyph unicode="&#x20;" horiz-adv-x="512" d="" />
<glyph unicode="&#xe900;" d="M847.241 294.967c0.018 7.732-2.118 15.304-6.178 21.888l-39.362 63.366c-4.906 9.744-7.448 20.51-7.414 31.418v195.219c0 126.734-102.728 229.461-229.461 229.461h-105.906c-126.734 0-229.461-102.728-229.461-229.461v-195.219c0.036-10.908-2.506-21.676-7.414-31.418l-39.362-63.366c-4.060-6.584-6.196-14.156-6.178-21.888v0c0.088-22.682 18.446-41.038 41.126-41.126h588.48c22.684 0.088 41.042 18.446 41.13 41.126z" />
<glyph unicode="&#xe901;" d="M564.828 836.318l88.254 123.556h-282.413l88.254-123.556v-35.302h105.906z" />
<glyph unicode="&#xe902;" d="M841.063 316.855l-39.362 63.366c-4.906 9.744-7.448 20.51-7.414 31.418v195.219c0.124 51.118-16.838 100.822-48.186 141.207-47.128-259.645-213.045-409.324-368.903-494.224h428.916c22.804-0.088 41.374 18.322 41.462 41.144 0.036 7.732-2.1 15.304-6.16 21.87h-0.354z" />
<glyph unicode="&#xe903;" d="M600.128 571.556v11.296c-0.088 32.708-26.6 59.218-59.308 59.308h-11.296v35.302h-35.302v-35.302h-11.296c-32.76 0.106-59.396-26.352-59.502-59.112-0.088-24.87 15.356-47.146 38.674-55.794l32.124-12.002v-67.25h-11.296c-13.256 0-24.006 10.75-24.006 24.006v0 11.296h-35.302v-11.296c0.088-32.708 26.6-59.218 59.308-59.308h57.896c32.76-0.106 59.396 26.352 59.502 59.112 0.088 24.87-15.356 47.146-38.674 55.794l-32.124 12.002v67.25h11.296c13.256 0 24.006-10.75 24.006-24.006v0-11.296h35.3zM549.294 494.598c9.32-3.618 15.48-12.586 15.532-22.594 0-13.256-10.75-24.006-24.006-24.006v0h-11.296v54.012l19.77-7.412zM494.224 552.846l-19.77 7.414c-9.32 3.618-15.48 12.586-15.532 22.594 0 13.256 10.75 24.006 24.006 24.006v0h11.296v-54.014z" />
<glyph unicode="&#xe904;" d="M864.891 783.367v0c-6.002 36.22-34.384 64.602-70.604 70.604v0c36.22 6.002 64.602 34.384 70.604 70.604v0c6.002-36.22 34.384-64.602 70.604-70.604v0c-36.22-6.002-64.602-34.386-70.604-70.604z" />
<glyph unicode="&#xe905;" d="M70.604 430.35v0c-6.002 36.218-34.384 64.602-70.604 70.602v0c36.22 6.002 64.602 34.384 70.604 70.604v0c6.002-36.22 34.384-64.602 70.604-70.604v0c-36.22-6-64.604-34.384-70.604-70.602z" />
<glyph unicode="&#xe906;" d="M1016.158 344.036c-14.492 24.394-45.628 33.024-70.604 19.592l-250.465-106.964c-4.412-1.87-9.16-2.842-13.944-2.824h-310.479c-19.504 0-35.302 15.798-35.302 35.302s15.798 35.302 35.302 35.302h141.207c58.496 0 105.906 47.41 105.906 105.906h-293.711c-48.682-0.036-94.714-22.188-125.144-60.19l-110.672-133.969 124.616-228.401 479.574 115.26c20.722 4.784 40.774 12.126 59.66 21.888l247.111 126.558c24.588 15.442 32.142 47.796 16.944 72.542z" />
<glyph unicode="&#xe907;" d="M173.155 80.509l39.714-72.722 479.574 115.26c20.722 4.784 40.774 12.126 59.66 21.888l133.617 68.662c-222.049-67.956-516.818-110.318-712.565-133.087z" />
<glyph unicode="&#xe908;" d="M0 253.841v-317.715h229.461l52.952 52.952-211.809 317.715z" />
<glyph unicode="&#xe909;" d="M0-63.874h229.461l52.952 52.952-38.832 58.248c-78.51-32.406-160.127-56.712-243.581-72.546v-38.654z" />
<glyph unicode="&#xe90a;" d="M194.159 24.328c0-19.497-15.805-35.302-35.302-35.302s-35.302 15.805-35.302 35.302c0 19.497 15.805 35.302 35.302 35.302s35.302-15.805 35.302-35.302z" />
<glyph unicode="&#xe90b;" d="M375.466 550.4v102.4c0 37.7 30.566 68.266 68.266 68.266v0c42.974-21.486 93.56-21.486 136.534 0v0c37.7 0 68.266-30.566 68.266-68.266v-102.4c0-18.858-15.274-34.134-34.134-34.134h-204.798c-18.858 0-34.134 15.276-34.134 34.134z" />
<glyph unicode="&#xe90c;" d="M597.334 857.6c0-47.129-38.205-85.334-85.334-85.334s-85.334 38.205-85.334 85.334c0 47.129 38.205 85.334 85.334 85.334s85.334-38.205 85.334-85.334z" />
<glyph unicode="&#xe90d;" d="M119.466 430.934c-9.42 0-17.066 7.646-17.066 17.066-0.154 164.352 98.030 312.832 249.31 377.054 8.67 3.686 18.706-0.342 22.392-9.012s-0.342-18.706-9.012-22.392v0c-138.684-58.862-228.694-194.986-228.556-345.65 0-9.42-7.646-17.066-17.068-17.066z" />
<glyph unicode="&#xe90e;" d="M904.534 430.934c-9.42 0-17.066 7.646-17.066 17.066 0.136 150.664-89.874 286.788-228.556 345.652-8.67 3.686-12.698 13.722-9.012 22.392s13.722 12.698 22.392 9.012c151.278-64.224 249.462-212.704 249.308-377.056 0-9.42-7.646-17.066-17.066-17.066z" />
<glyph unicode="&#xe90f;" d="M512 38.4c-55.074-0.102-109.602 10.974-160.29 32.546-8.67 3.686-12.698 13.722-9.012 22.392s13.722 12.698 22.392 9.012c93.952-39.56 199.868-39.56 293.82 0 8.67 3.686 18.706-0.342 22.392-9.012s-0.342-18.706-9.012-22.392c-50.688-21.572-105.216-32.648-160.29-32.546z" />
<glyph unicode="&#xe910;" d="M392.534 4.266c-6.366-0.018-12.202 3.516-15.156 9.164l-34.134 65.314c-4.37 8.346-1.126 18.67 7.22 23.022 0.99 0.512 2.048 0.938 3.124 1.262l68.266 20.020c9.046 2.646 18.534-2.542 21.18-11.588s-2.542-18.534-11.588-21.18l-48.316-14.166 24.524-46.882c4.37-8.362 1.126-18.67-7.22-23.022-2.44-1.278-5.152-1.944-7.9-1.944z" />
<glyph unicode="&#xe911;" d="M904.534 430.934c-4.522 0-8.874 1.792-12.066 5l-51.2 51.2c-6.554 6.776-6.366 17.578 0.426 24.132 6.622 6.382 17.1 6.382 23.706 0l39.134-39.134 39.134 39.134c6.776 6.554 17.578 6.366 24.132-0.426 6.382-6.622 6.382-17.1 0-23.706l-51.2-51.2c-3.192-3.208-7.544-5-12.066-5z" />
<glyph unicode="&#xe912;" d="M324.266 721.066c-2.56 0-5.068 0.58-7.372 1.706-8.482 4.078-12.066 14.268-7.988 22.766l26.606 55.534-52.446 23.894c-8.414 4.25-11.794 14.506-7.56 22.92 4.010 7.954 13.482 11.486 21.726 8.106l68.266-31.18c8.568-3.942 12.306-14.080 8.362-22.648-0.034-0.068-0.068-0.136-0.102-0.204l-34.134-71.22c-2.83-5.902-8.804-9.656-15.358-9.674z" />
<glyph unicode="&#xe913;" d="M562.996 925.662c28.364-37.394 21.044-90.692-16.332-119.058-30.362-23.040-72.362-23.040-102.724 0 28.040-37.718 81.34-45.568 119.058-17.544s45.568 81.34 17.544 119.058c-4.968 6.672-10.874 12.594-17.546 17.544z" />
<glyph unicode="&#xe914;" d="M955.734 294.4c0-47.129-38.205-85.334-85.334-85.334s-85.334 38.205-85.334 85.334c0 47.129 38.205 85.334 85.334 85.334s85.334-38.205 85.334-85.334z" />
<glyph unicode="&#xe915;" d="M921.396 362.462c28.364-37.394 21.044-90.692-16.332-119.058-30.362-23.040-72.362-23.040-102.724 0 28.040-37.718 81.34-45.568 119.058-17.544s45.568 81.34 17.544 119.058c-4.968 6.672-10.874 12.594-17.546 17.544z" />
<glyph unicode="&#xe916;" d="M238.934 294.4c0-47.129-38.205-85.334-85.334-85.334s-85.334 38.205-85.334 85.334c0 47.129 38.205 85.334 85.334 85.334s85.334-38.205 85.334-85.334z" />
<glyph unicode="&#xe917;" d="M204.596 362.462c28.364-37.394 21.044-90.692-16.332-119.058-30.362-23.040-72.362-23.040-102.724 0 28.040-37.718 81.34-45.568 119.058-17.544 37.718 28.040 45.568 81.34 17.544 119.058-4.968 6.672-10.874 12.594-17.546 17.544z" />
<glyph unicode="&#xe918;" d="M375.466 550.4c0-18.858 15.274-34.134 34.134-34.134h204.8c18.858 0 34.134 15.274 34.134 34.134v102.4c-0.068 11.878-3.26 23.518-9.268 33.758-60.706-85.418-159.010-136.158-263.8-136.158z" />
<glyph unicode="&#xe919;" d="M17.066-12.8v102.4c0 37.7 30.566 68.266 68.266 68.266v0c42.974-21.486 93.56-21.486 136.534 0v0c37.7 0 68.266-30.566 68.266-68.266v-102.4c0-18.858-15.274-34.134-34.134-34.134h-204.798c-18.858 0-34.134 15.276-34.134 34.134z" />
<glyph unicode="&#xe91a;" d="M17.066-12.8c0-18.858 15.274-34.134 34.134-34.134h204.8c18.858 0 34.134 15.274 34.134 34.134v102.4c-0.068 11.878-3.26 23.518-9.268 33.758-60.706-85.418-159.010-136.158-263.8-136.158z" />
<glyph unicode="&#xe91b;" d="M733.866-12.8v102.4c0 37.7 30.566 68.266 68.266 68.266v0c42.974-21.486 93.56-21.486 136.534 0v0c37.7 0 68.266-30.566 68.266-68.266v-102.4c0-18.858-15.274-34.134-34.134-34.134h-204.798c-18.858 0-34.134 15.276-34.134 34.134z" />
<glyph unicode="&#xe91c;" d="M733.866-12.8c0-18.858 15.274-34.134 34.134-34.134h204.8c18.858 0 34.134 15.274 34.134 34.134v102.4c-0.068 11.878-3.26 23.518-9.268 33.758-60.706-85.418-159.010-136.158-263.8-136.158z" />
<glyph unicode="&#xe91d;" d="M614.4 857.6c0 56.558-45.842 102.4-102.4 102.4s-102.4-45.842-102.4-102.4 45.842-102.4 102.4-102.4c56.524 0.052 102.348 45.876 102.4 102.4zM443.734 857.6c0 37.7 30.566 68.266 68.266 68.266s68.266-30.566 68.266-68.266-30.566-68.266-68.266-68.266c-37.7 0-68.266 30.566-68.266 68.266z" />
<glyph unicode="&#xe91e;" d="M358.4 652.8v-102.4c0-28.28 22.92-51.2 51.2-51.2h204.8c28.28 0 51.2 22.92 51.2 51.2v102.4c-0.052 47.104-38.23 85.282-85.334 85.334h-4.028l-3.602-1.792c-38.196-19.012-83.080-19.012-121.276 0l-3.602 1.792h-4.028c-47.1-0.052-85.278-38.23-85.33-85.334zM392.534 652.8c0 26.862 20.77 49.152 47.564 51.064 45.602-21.162 98.202-21.162 143.804 0 26.794-1.912 47.564-24.2 47.564-51.064v-102.4c0-9.42-7.646-17.066-17.066-17.066h-204.8c-9.42 0-17.066 7.646-17.066 17.066v102.4z" />
<glyph unicode="&#xe91f;" d="M870.4 396.8c-56.558 0-102.4-45.842-102.4-102.4s45.842-102.4 102.4-102.4c56.558 0 102.4 45.842 102.4 102.4-0.052 56.524-45.876 102.348-102.4 102.4zM870.4 226.134c-37.7 0-68.266 30.566-68.266 68.266s30.566 68.266 68.266 68.266 68.266-30.566 68.266-68.266-30.566-68.266-68.266-68.266z" />
<glyph unicode="&#xe920;" d="M938.666 174.934h-4.028l-3.602-1.706c-38.196-19.012-83.080-19.012-121.276 0l-3.602 1.706h-4.028c-47.104-0.052-85.282-38.23-85.334-85.334v-102.4c0-28.28 22.92-51.2 51.2-51.2h204.8c28.28 0 51.2 22.92 51.2 51.2v102.4c-0.048 47.104-38.226 85.282-85.33 85.334zM989.866-12.8c0-9.42-7.646-17.066-17.066-17.066h-204.8c-9.42 0-17.066 7.646-17.066 17.066v102.4c0 26.862 20.77 49.152 47.564 51.064 45.602-21.162 98.202-21.162 143.804 0 26.794-1.912 47.564-24.2 47.564-51.064v-102.4z" />
<glyph unicode="&#xe921;" d="M153.6 396.8c-56.558 0-102.4-45.842-102.4-102.4s45.842-102.4 102.4-102.4 102.4 45.842 102.4 102.4c-0.052 56.524-45.876 102.348-102.4 102.4zM153.6 226.134c-37.7 0-68.266 30.566-68.266 68.266s30.566 68.266 68.266 68.266 68.266-30.566 68.266-68.266-30.566-68.266-68.266-68.266z" />
<glyph unicode="&#xe922;" d="M51.2-64h204.8c28.28 0 51.2 22.92 51.2 51.2v102.4c-0.052 47.104-38.23 85.282-85.334 85.334h-4.028l-3.602-1.706c-38.196-19.012-83.080-19.012-121.276 0l-3.602 1.706h-4.028c-47.1-0.052-85.278-38.23-85.33-85.334v-102.4c0-28.28 22.92-51.2 51.2-51.2zM34.134 89.6c0 26.862 20.77 49.152 47.564 51.064 45.602-21.162 98.202-21.162 143.804 0 26.794-1.912 47.564-24.2 47.564-51.064v-102.4c0-9.42-7.646-17.066-17.066-17.066h-204.8c-9.42 0-17.066 7.646-17.066 17.066v102.4z" />
<glyph unicode="&#xe923;" d="M919 391v-400c0-12.703-5.922-24.023-15.156-31.344-6.82-5.414-15.461-8.656-24.844-8.656h-760c-9.383 0-18.023 3.242-24.844 8.656-9.234 7.32-15.156 18.641-15.156 31.344v400c0 12.703 5.922 24.023 15.156 31.344 6.82 5.414 15.461 8.656 24.844 8.656h760c9.383 0 18.023-3.242 24.844-8.656 9.234-7.32 15.156-18.641 15.156-31.344z" />
<glyph unicode="&#xe924;" d="M184 865.758h630v-804.758h-630z" />
<glyph unicode="&#xe925;" d="M754 865.758h60v-804.758h-60z" />
<glyph unicode="&#xe926;" d="M919 391v-400c0-12.703-5.922-24.023-15.156-31.344-6.82-5.414-15.461-8.656-24.844-8.656h-760c-9.383 0-18.023 3.242-24.844 8.656l809.688 462.688c9.234-7.32 15.156-18.641 15.156-31.344z" />
<glyph unicode="&#xe927;" d="M903.844-40.344c-6.82-5.414-15.461-8.656-24.844-8.656h-760c-9.383 0-18.023 3.242-24.844 8.656-9.234 7.32-15.156 18.641-15.156 31.344v400c0 12.703 5.922 24.023 15.156 31.344z" />
<glyph unicode="&#xe928;" d="M725.094 532.117l-222.789-114.031-108.719 108.727 114.023 222.781c1.383 2.695 4.992 3.266 7.133 1.125l211.477-211.469c2.141-2.141 1.57-5.758-1.125-7.133z" />
<glyph unicode="&#xe929;" d="M416.125 352.945l-5.656-5.656c-24.211-24.211-63.469-24.211-87.68 0-24.211 24.219-24.211 63.469 0 87.688l5.656 5.656z" />
<glyph unicode="&#xe92a;" d="M554.938 290.937c-11.719-11.719-30.711-11.719-42.43 0l-123.031 123.039 42.422 42.422 123.039-123.031c11.711-11.719 11.711-30.711 0-42.43z" />
<glyph unicode="&#xe92b;" d="M507.609 749.594l-25.93-50.664 192.75-192.742 50.664 25.93c2.695 1.375 3.266 4.992 1.125 7.133l-211.477 211.469c-2.141 2.141-5.75 1.57-7.133-1.125z" />
<glyph unicode="&#xe92c;" d="M506.602 412.312l-73.039-73.039c-3.258-3.266-8.547-3.266-11.813 0l-106.977 106.977c-3.266 3.266-3.266 8.555 0 11.813l73.031 73.039c3.266 3.266 8.555 3.266 11.82 0l106.977-106.977c3.266-3.266 3.266-8.555 0-11.813z" />
<glyph unicode="&#xe92d;" d="M387.805 531.102l-42.422-42.422c3.258 3.258 8.555 3.258 11.813 0l106.984-106.984c3.258-3.258 3.258-8.547 0-11.813l42.422 42.43c3.266 3.258 3.266 8.547 0 11.813l-106.977 106.977c-3.266 3.266-8.555 3.266-11.82 0z" />
<glyph unicode="&#xe92e;" d="M943 805c0-12.031-12.594-22.25-15.555-33.352-3.070-11.477 2.633-26.609-3.18-36.664-5.906-10.195-21.914-12.781-30.188-21.055-8.281-8.281-10.867-24.289-21.063-30.188-10.055-5.82-25.188-0.117-36.664-3.18-11.102-2.969-21.32-15.563-33.352-15.563s-22.25 12.594-33.352 15.563c-11.477 3.070-26.609-2.641-36.664 3.18-10.195 5.898-12.781 21.906-21.055 30.188-8.281 8.273-24.289 10.859-30.188 21.055-5.82 10.055-0.117 25.188-3.18 36.664-2.969 11.102-15.563 21.32-15.563 33.352s12.594 22.25 15.555 33.352c3.070 11.477-2.633 26.609 3.18 36.664 5.906 10.195 21.914 12.781 30.188 21.055 8.281 8.281 10.867 24.289 21.063 30.188 10.055 5.82 25.188 0.117 36.664 3.18 11.102 2.969 21.32 15.563 33.352 15.563s22.25-12.594 33.352-15.555c11.477-3.070 26.609 2.633 36.664-3.18 10.195-5.906 12.781-21.914 21.055-30.188 8.281-8.281 24.289-10.867 30.188-21.063 5.82-10.055 0.117-25.188 3.18-36.664 2.969-11.102 15.563-21.32 15.563-33.352z" />
<glyph unicode="&#xe92f;" d="M913.172 434.086c-0.031 0.023-0.063 0.039-0.094 0.063-0.18 0.141-0.359 0.266-0.539 0.398-9.57 7.375-21.438 11.453-33.539 11.453h-50v35c0 8.289-6.711 15-15 15s-15-6.711-15-15v-101.289l-300-171.43-300 171.43v324.953c0 8.289-6.719 15-15 15s-15-6.711-15-15v-258.664h-50c-12.133 0-24.023-4.094-33.586-11.484-0.156-0.117-0.32-0.227-0.477-0.352-0.031-0.023-0.063-0.047-0.094-0.063-13.242-10.5-20.844-26.211-20.844-43.102v-400c0-16.891 7.602-32.602 20.828-43.086 9.672-7.68 21.805-11.914 34.172-11.914h760c12.156 0 24.078 4.109 33.656 11.539 0.117 0.086 0.242 0.172 0.359 0.266 0.047 0.031 0.094 0.063 0.141 0.102 13.242 10.492 20.844 26.203 20.844 43.094v400c0 16.891-7.602 32.602-20.828 43.086zM829 416h33.516l-33.516-19.148zM169 396.852l-33.516 19.148h33.516zM103.477-28.578c-6.023 4.766-9.477 11.906-9.477 19.578v400c0 4.391 1.164 8.594 3.266 12.289l577.414-329.953c2.344-1.344 4.898-1.977 7.422-1.977 5.211 0 10.273 2.711 13.039 7.563 4.117 7.188 1.617 16.352-5.578 20.461l-160.328 91.617 371.5 212.289c2.102-3.695 3.266-7.898 3.266-12.289v-400c0-4.391-1.164-8.594-3.266-12.289l-155.641 88.938c-7.195 4.109-16.359 1.609-20.461-5.586-4.109-7.188-1.617-16.352 5.578-20.461l132.305-75.602h-743.516c-5.695 0-11.063 1.867-15.523 5.422z" />
<glyph unicode="&#xe930;" d="M947.273 777.289c4.781 7.266 10.727 16.297 10.727 27.711s-5.953 20.445-10.727 27.711c-2.313 3.508-4.711 7.141-5.336 9.516-0.711 2.648-0.461 7.164-0.219 11.539 0.477 8.539 1.070 19.18-4.477 28.766-5.602 9.688-15.188 14.5-22.883 18.367-3.844 1.938-7.828 3.938-9.672 5.789-1.852 1.844-3.852 5.828-5.789 9.68-3.867 7.695-8.68 17.273-18.375 22.883-9.578 5.539-20.219 4.945-28.766 4.469-4.367-0.242-8.883-0.492-11.539 0.219-2.367 0.633-6 3.023-9.516 5.336-7.258 4.773-16.297 10.727-27.703 10.727s-20.445-5.953-27.711-10.727c-3.508-2.313-7.141-4.711-9.516-5.336-2.648-0.711-7.164-0.461-11.539-0.219-8.547 0.477-19.188 1.070-28.766-4.477-9.688-5.602-14.5-15.188-18.367-22.883-1.938-3.844-3.938-7.828-5.789-9.672-1.844-1.852-5.828-3.852-9.68-5.789-7.695-3.867-17.273-8.68-22.883-18.375-0.336-0.578-0.648-1.172-0.945-1.766h-483.805c-8.281 0-15-6.711-15-15v-97.758c0-8.289 6.719-15 15-15s15 6.711 15 15v82.758h465.437c0.156-3.336 0.18-6.492-0.367-8.539-0.633-2.367-3.023-6-5.336-9.516-4.781-7.258-10.734-16.297-10.734-27.703 0-11.414 5.953-20.453 10.734-27.711 2.313-3.508 4.703-7.141 5.336-9.516 0.703-2.648 0.453-7.172 0.211-11.539-0.477-8.547-1.070-19.188 4.477-28.766 2.805-4.844 6.602-8.477 10.664-11.375h-108.844l-45.234 45.234c-4.391 4.383-10.664 6.422-16.797 5.453-6.117-0.969-11.461-4.844-14.273-10.352l-20.656-40.328h-178.617c-8.281 0-15-6.719-15-15 0-8.289 6.719-15 15-15h163.266l-21.5-42h-141.766c-8.281 0-15-6.719-15-15 0-8.289 6.719-15 15-15h126.406l-21.5-42h-104.906c-8.281 0-15-6.719-15-15 0-8.289 6.719-15 15-15h82.633c-0.141-0.133-0.289-0.25-0.43-0.391l-73.047-73.039c-9.023-9.031-9.086-23.672-0.203-32.797-9.289-12.953-14.313-28.453-14.313-44.734 0-20.578 8-39.914 22.531-54.445 14.547-14.547 33.891-22.555 54.453-22.555 16.297 0 31.805 5.039 44.742 14.328 4.523-4.414 10.406-6.625 16.289-6.625 5.984 0 11.961 2.273 16.516 6.828l4.695 4.695 53.023-53.031c8.781-8.773 20.305-13.156 31.828-13.156s23.055 4.383 31.828 13.156c8.5 8.5 13.18 19.805 13.18 31.82s-4.68 23.313-13.18 31.813l-53.039 53.039 4.703 4.703c2.875 2.883 4.891 6.383 5.961 10.203l208.797 106.875c5.508 2.836 9.359 8.188 10.32 14.305 0.953 6.117-1.086 12.375-5.461 16.758l-64.25 64.258h54.422c8.289 0 15 6.711 15 15 0 8.281-6.711 15-15 15h-84.422l-42 42h110.516c3.336-5.727 7.695-11.484 14.383-15.352 9.578-5.539 20.219-4.945 28.766-4.469 4.367 0.242 8.883 0.492 11.539-0.211 2.367-0.633 6-3.031 9.516-5.344 6.391-4.203 14.156-9.313 23.703-10.477v-106.258c0-8.289 6.719-15 15-15 8.289 0 15 6.711 15 15v115.609c0.578 0.375 1.148 0.758 1.711 1.125 3.508 2.313 7.141 4.703 9.516 5.336 2.656 0.703 7.172 0.453 11.539 0.211 8.547-0.469 19.188-1.063 28.766 4.477 9.688 5.609 14.508 15.188 18.375 22.883 1.93 3.852 3.93 7.828 5.781 9.672 1.852 1.852 5.828 3.852 9.68 5.789 7.695 3.867 17.281 8.68 22.883 18.375 5.547 9.578 4.953 20.219 4.477 28.766-0.25 4.367-0.5 8.883 0.211 11.539 0.625 2.367 3.023 6 5.336 9.508zM333.383 357.906c-8.859 8.867-13.742 20.664-13.742 33.234 0 8.211 2.094 16.094 5.992 23.031l64.016-64.016c-6.953-3.922-14.82-6.023-23.023-6.023-12.555 0-24.359 4.891-33.242 13.773zM330.070 452.156l63.641 63.641 97.586-97.578-52.922-52.922c-0.039-0.039-0.078-0.070-0.117-0.109-0.047-0.039-0.078-0.086-0.117-0.125l-10.484-10.484zM544.336 322.75c2.836-2.828 4.391-6.602 4.391-10.602s-1.555-7.766-4.398-10.602c-5.852-5.852-15.367-5.852-21.219 0l-53.031 53.023 21.219 21.219zM512.031 439.906l-96.633 96.633 98.977 193.336 191-191zM922.211 793.789c-3.453-5.25-7.375-11.195-9.266-18.266-1.945-7.281-1.539-14.547-1.18-20.953 0.242-4.32 0.57-10.242-0.492-12.070-1.117-1.938-6.477-4.625-10.383-6.594-5.695-2.859-12.156-6.109-17.422-11.375-5.273-5.273-8.516-11.727-11.375-17.422-1.969-3.914-4.656-9.273-6.594-10.391-1.828-1.055-7.758-0.727-12.070-0.484-6.406 0.359-13.672 0.758-20.953-1.188-7.070-1.891-13.023-5.805-18.266-9.258-3.914-2.578-8.789-5.789-11.211-5.789s-7.297 3.211-11.211 5.789c-5.25 3.453-11.195 7.375-18.266 9.266-4.328 1.148-8.641 1.477-12.781 1.477-2.82 0-5.57-0.148-8.172-0.297-4.32-0.242-10.25-0.57-12.070 0.492-1.938 1.117-4.625 6.477-6.594 10.383-2.859 5.695-6.109 12.156-11.375 17.422-5.273 5.273-11.727 8.516-17.422 11.375-3.914 1.969-9.273 4.656-10.391 6.594-1.055 1.828-0.727 7.75-0.484 12.070 0.359 6.406 0.758 13.672-1.188 20.953-1.891 7.070-5.805 13.023-9.258 18.266-2.578 3.922-5.789 8.797-5.789 11.211 0 2.422 3.203 7.297 5.789 11.211 3.453 5.25 7.367 11.203 9.258 18.266 1.945 7.289 1.547 14.547 1.188 20.953-0.156 2.75-0.336 6.141-0.188 8.719 0.008 0.070 0.016 0.148 0.023 0.219 0.094 1.367 0.289 2.508 0.648 3.141 1.125 1.93 6.477 4.625 10.391 6.586 5.695 2.867 12.148 6.109 17.422 11.375 5.266 5.273 8.516 11.727 11.375 17.422 1.969 3.914 4.656 9.273 6.594 10.391 1.82 1.063 7.75 0.727 12.070 0.484 6.406-0.359 13.672-0.758 20.953 1.188 7.070 1.891 13.016 5.805 18.266 9.266 3.914 2.57 8.789 5.781 11.211 5.781s7.297-3.211 11.211-5.789c5.25-3.453 11.195-7.375 18.266-9.266 7.289-1.938 14.539-1.539 20.953-1.18 4.32 0.242 10.25 0.57 12.070-0.492 1.938-1.117 4.625-6.477 6.594-10.383 2.859-5.695 6.109-12.156 11.375-17.422 5.273-5.273 11.727-8.516 17.422-11.375 3.914-1.969 9.273-4.656 10.391-6.594 1.055-1.828 0.727-7.75 0.484-12.070-0.359-6.406-0.758-13.672 1.188-20.953 1.891-7.070 5.805-13.023 9.258-18.266 2.578-3.922 5.789-8.797 5.789-11.211 0-2.422-3.211-7.297-5.789-11.211z" />
<glyph unicode="&#xe931;" d="M773.273 849.727c0-8.281-6.719-15-15-15s-15 6.719-15 15 6.719 15 15 15 15-6.719 15-15z" />
<glyph unicode="&#xe932;" d="M862.727 760.273c0-8.281-6.719-15-15-15s-15 6.719-15 15 6.719 15 15 15 15-6.719 15-15z" />
<glyph unicode="&#xe933;" d="M837.813 861.031l-90.844-90.844c-5.859-5.859-5.859-15.359 0-21.219 2.93-2.922 6.773-4.391 10.609-4.391s7.68 1.469 10.609 4.391l90.844 90.844c5.859 5.867 5.859 15.359 0 21.219-5.859 5.852-15.359 5.852-21.219 0z" />
<glyph unicode="&#xe934;" d="M486.401 398.934l-138.668-379.734-29.866-83.2h-149.334l53.332 149.334 113.068 313.6z" />
<glyph unicode="&#xe935;" d="M855.467-64h-149.334l-29.866 83.2-138.668 379.734h151.467l113.068-313.6z" />
<glyph unicode="&#xe936;" d="M334.933 398.934h151.467l-136.534-379.734c-44.8 14.933-87.467 38.4-128 66.134l113.068 313.6z" />
<glyph unicode="&#xe937;" d="M802.134 85.334c-38.4-27.734-81.066-49.067-128-66.134l-136.532 379.734h151.467l113.065-313.6z" />
<glyph unicode="&#xe938;" d="M981.335 490.666c0-259.206-210.128-469.334-469.334-469.334s-469.334 210.128-469.334 469.334c0 259.206 210.128 469.334 469.334 469.334s469.334-210.128 469.334-469.334z" />
<glyph unicode="&#xe939;" d="M881.067 490.666c0-203.83-165.236-369.066-369.066-369.066s-369.066 165.236-369.066 369.066c0 203.83 165.236 369.066 369.066 369.066s369.066-165.236 369.066-369.066z" />
<glyph unicode="&#xe93a;" d="M782.934 490.666c0-149.632-121.301-270.933-270.933-270.933s-270.933 121.301-270.933 270.933c0 149.632 121.301 270.933 270.933 270.933s270.933-121.301 270.933-270.933z" />
<glyph unicode="&#xe93b;" d="M684.802 490.666c0-95.435-77.365-172.801-172.801-172.801s-172.801 77.365-172.801 172.801c0 95.435 77.365 172.801 172.801 172.801s172.801-77.365 172.801-172.801z" />
<glyph unicode="&#xe93c;" d="M586.667 490.666c0-41.237-33.429-74.666-74.666-74.666s-74.666 33.429-74.666 74.666c0 41.237 33.429 74.666 74.666 74.666s74.666-33.429 74.666-74.666z" />
<glyph unicode="&#xe93d;" d="M866.134 785.066l-341.334-305.066h-2.134l-21.333 21.333v2.134l341.334 307.199h2.134l19.2-21.333c2.134-2.134 2.134-2.134 2.134-4.267z" />
<glyph unicode="&#xe93e;" d="M819.2 763.733l-123.733-110.932-17.066 89.599 123.733 110.934z" />
<glyph unicode="&#xe93f;" d="M782.934 627.2l123.733 108.8-87.467 27.732-123.733-110.932z" />
<glyph unicode="&#xe940;" d="M900.486 597.906c0-23.321-18.905-42.226-42.226-42.226s-42.226 18.905-42.226 42.226c0 23.321 18.905 42.226 42.226 42.226s42.226-18.905 42.226-42.226z" />
<glyph unicode="&#xe941;" d="M427.546 597.906c0-23.321-18.905-42.226-42.226-42.226s-42.226 18.905-42.226 42.226c0 23.321 18.905 42.226 42.226 42.226s42.226-18.905 42.226-42.226z" />
<glyph unicode="&#xe942;" d="M841.37 648.578c0-121.271-98.309-219.58-219.58-219.58s-219.58 98.309-219.58 219.58c0 121.271 98.309 219.58 219.58 219.58s219.58-98.309 219.58-219.58z" />
<glyph unicode="&#xe943;" d="M621.79 868.156c-121.272 0-219.58-98.308-219.58-219.58 0-48.416 15.684-93.162 42.226-129.464v159.022l177.352-42.226 177.352 42.226v-159.022c26.544 36.302 42.226 81.048 42.226 129.464 0.004 121.272-98.306 219.58-219.576 219.58z" />
<glyph unicode="&#xe944;" d="M621.79 910.384c-121.272 0-219.58-98.308-219.58-219.58h439.158c0.002 121.272-98.308 219.58-219.578 219.58z" />
<glyph unicode="&#xe945;" d="M651.348 908.396c-9.67 1.3-19.534 1.986-29.558 1.986-121.272 0-219.58-98.308-219.58-219.58h59.118c0 111.246 82.73 203.156 190.020 217.594z" />
<glyph unicode="&#xe946;" d="M621.79 627.464c83.618 0 162.604 19.79 232.576 54.894h-465.154c69.972-35.104 148.96-54.894 232.578-54.894z" />
<glyph unicode="&#xe947;" d="M359.984 716.14h523.612v-42.226h-523.612v42.226z" />
<glyph unicode="&#xe948;" d="M579.562 944.164h84.454v-228.024h-84.454v228.024z" />
<glyph unicode="&#xe949;" d="M875.15-48.164h-506.722v392.708c0 34.982 28.358 63.34 63.34 63.34h380.042c34.982 0 63.34-28.358 63.34-63.34v-392.708z" />
<glyph unicode="&#xe94a;" d="M431.77 407.884c-34.982 0-63.34-28.358-63.34-63.34v-392.71h328.672l-238.414 456.050h-26.918z" />
<glyph unicode="&#xe94b;" d="M558.45 407.884h126.68l-25.336-97.122h-76.008z" />
<glyph unicode="&#xe94c;" d="M680.908 57.402l-59.118-46.45-59.118 46.45 21.114 253.36h76.008z" />
<glyph unicode="&#xe94d;" d="M659.794 310.762h-76.008l-3.256-39.058h82.52z" />
<glyph unicode="&#xe94e;" d="M921.6 492.338h-92.898l46.448-244.916z" />
<glyph unicode="&#xe94f;" d="M875.15 441.666v-413.822h0.2c2.134-23.672 22.022-42.226 46.248-42.226s44.114 18.554 46.248 42.226h0.2v413.822h-92.896z" />
<glyph unicode="&#xe950;" d="M875.15 323.43h92.898v-288.198h-92.898v288.198z" />
<glyph unicode="&#xe951;" d="M968.050 445.888c0-25.654-20.796-46.45-46.45-46.45s-46.45 20.796-46.45 46.45c0 25.654 20.796 46.45 46.45 46.45s46.45-20.796 46.45-46.45z" />
<glyph unicode="&#xe952;" d="M832.924 118.63v118.236c0 17.49 14.18 31.67 31.67 31.67h109.79c17.49 0 31.67-14.18 31.67-31.67v-118.236c0-17.49-14.18-31.67-31.67-31.67h-109.79c-17.49 0-31.67 14.18-31.67 31.67z" />
<glyph unicode="&#xe953;" d="M490.886 19.398h-430.712v306.144c0 17.49 14.18 31.67 31.67 31.67h367.374c17.49 0 31.67-14.18 31.67-31.67v-306.144z" />
<glyph unicode="&#xe954;" d="M490.886 325.542c0 17.49-14.18 31.67-31.67 31.67h-367.372c-17.49 0-31.67-14.18-31.67-31.67v-26.744h430.714v26.744z" />
<glyph unicode="&#xe955;" d="M138.292 357.212h-46.448c-17.49 0-31.67-14.18-31.67-31.67v-306.144h46.45v306.144c-0.002 17.49 14.178 31.67 31.668 31.67z" />
<glyph unicode="&#xe956;" d="M138.292 357.212h-46.448c-17.49 0-31.67-14.18-31.67-31.67v-26.744h46.45v26.744c-0.002 17.49 14.178 31.67 31.668 31.67z" />
<glyph unicode="&#xe957;" d="M501.444-48.164h-451.828c-17.49 0-31.67 14.18-31.67 31.67v35.892h515.166v-35.892c0.002-17.492-14.178-31.67-31.668-31.67z" />
<glyph unicode="&#xe958;" d="M667.622 513.794c6.808 5.49 7.876 15.46 2.386 22.266s-15.46 7.876-22.266 2.386c-10.252-8.266-21.566-9.16-25.952-9.16-13.168 0-22.538 6.408-25.954 9.162-6.81 5.488-16.776 4.414-22.266-2.39-5.488-6.81-4.416-16.778 2.39-22.266 7.494-6.040 23.412-16.174 45.83-16.174 9.626-0.002 28.376 2.102 45.832 16.176z" />
<glyph unicode="&#xe959;" d="M708.354 577.848h10.556c8.746 0 15.836 7.090 15.836 15.836s-7.090 15.836-15.836 15.836h-10.556c-8.746 0-15.836-7.090-15.836-15.836s7.092-15.836 15.836-15.836z" />
<glyph unicode="&#xe95a;" d="M535.224 609.518h-10.556c-8.746 0-15.836-7.090-15.836-15.836s7.090-15.836 15.836-15.836h10.556c8.746 0 15.836 7.090 15.836 15.836s-7.090 15.836-15.836 15.836z" />
<glyph unicode="&#xe95b;" d="M983.884 283.414v162.474c0 34.344-27.942 62.284-62.284 62.284h-92.898c-9.774 0-17.378-9.176-15.558-18.784l12.454-65.67h-134.030c23.284 7.24 45.4 18.154 65.342 32.184 19.734 13.886 37.322 30.79 51.98 49.958 9.438 12.346 17.668 25.638 24.5 39.604 7.712-3.674 16.132-5.624 24.872-5.624 32.016 0 58.062 26.046 58.062 58.062s-26.046 58.064-58.062 58.064c-0.394 0-0.79-0.022-1.184-0.030-0.022 0.714-0.048 1.428-0.076 2.14h26.596c8.746 0 15.836 7.090 15.836 15.836v42.228c0 8.746-7.090 15.836-15.836 15.836h-30.028c-16.016 90.552-84.75 164.402-173.716 187.014v25.174c0 8.746-7.090 15.836-15.836 15.836h-84.454c-8.746 0-15.836-7.090-15.836-15.836v-25.176c-88.968-22.612-157.7-96.462-173.716-187.014h-30.028c-8.746 0-15.836-7.090-15.836-15.836v-42.226c0-8.746 7.090-15.836 15.836-15.836h26.596c-0.028-0.714-0.054-1.428-0.076-2.14-0.394 0.008-0.79 0.030-1.184 0.030-32.016 0-58.062-26.046-58.062-58.062s26.046-58.062 58.062-58.062c8.738 0 17.158 1.95 24.872 5.624 11.482-23.468 26.876-44.956 45.362-63.412 17.114-17.082 36.836-31.534 58.308-42.66 12.222-6.334 25.004-11.59 38.15-15.676h-120.242c-32.88 0-62.214-20.488-73.868-50.672h-266.058c-26.196 0-47.506-21.31-47.506-47.506v-171.018c0-8.746 7.090-15.836 15.836-15.836s15.836 7.090 15.836 15.836v128.44h399.044v-247.73h-399.046v34.838c0 8.746-7.090 15.836-15.836 15.836s-15.836-7.090-15.836-15.836v-34.838h-26.39c-8.746 0-15.836-7.090-15.836-15.836v-35.892c0.002-26.194 21.312-47.504 47.506-47.504h451.826c0.47 0 0.938 0.022 1.404 0.036 0.236-0.010 0.468-0.036 0.708-0.036h211.134c8.746 0 15.836 7.090 15.836 15.836s-7.090 15.836-15.836 15.836h-168.464c1.758 4.956 2.724 10.284 2.724 15.836v35.892c0 8.746-7.090 15.836-15.836 15.836h-26.392v290.306c0 26.196-21.31 47.506-47.506 47.506h-65.406c8.794 11.66 22.73 19.002 37.958 19.002h114.446l21.566-82.668-20.89-250.664c-0.442-5.306 1.812-10.478 5.996-13.768l59.118-46.45c5.676-4.46 13.89-4.46 19.568 0l59.118 46.45c4.184 3.29 6.44 8.462 5.996 13.768l-20.89 250.664 21.57 82.668h134.238l20.728-109.292c-20.268-5.42-35.242-23.936-35.242-45.892v-118.236c0-24.41 18.508-44.57 42.226-47.206v-103.756h-60.174c-8.746 0-15.836-7.090-15.836-15.836s7.090-15.836 15.836-15.836h76.008c8.746 0 15.836 7.090 15.836 15.836v25.89c9.042-5.068 19.486-7.942 30.614-7.942 31.48 0 57.518 22.92 61.698 53.776 0.382 1.364 0.586 2.802 0.586 4.286v44.238c21.658 4.412 38.004 23.606 38.004 46.548v118.236c0.002 22.944-16.344 42.138-38.002 46.55zM517.278-16.494c0-8.732-7.102-15.836-15.836-15.836h-451.826c-8.732 0-15.836 7.102-15.836 15.836v20.058h483.496v-20.058zM462.404 341.054c7.21-1.48 12.646-7.874 12.646-15.512v-10.91h-399.042v10.91c0 7.638 5.438 14.034 12.646 15.512 1.030 0.212 2.096 0.324 3.188 0.324h367.374c1.092 0 2.158-0.112 3.188-0.324zM418.046 648.578c0 1.076 0.062 2.158 0.076 3.236 3.482-1.436 6.976-2.822 10.48-4.182v-63.822c-6.842 20.356-10.556 42.136-10.556 64.768zM825.458 651.814c0.016-1.078 0.076-2.16 0.076-3.236 0-22.632-3.714-44.412-10.556-64.768v63.824c3.502 1.36 6.998 2.746 10.48 4.18zM884.652 597.906c0-14.554-11.838-26.392-26.392-26.392-4.58 0-8.968 1.168-12.884 3.37 5.21 15.77 8.806 32.266 10.568 49.3 0.768 0.066 1.54 0.114 2.314 0.114 14.556-0.002 26.394-11.84 26.394-26.392zM821.34 731.976h-141.49v154.174c71.414-21.246 126.42-80.984 141.49-154.174zM595.398 928.33h52.784v-196.354h-52.784v196.354zM375.818 700.306h85.51c8.746 0 15.836 7.090 15.836 15.836s-7.090 15.836-15.836 15.836h-39.090c15.070 73.192 70.078 132.928 141.49 154.174v-154.174h-34.838c-8.746 0-15.836-7.090-15.836-15.836s7.090-15.836 15.836-15.836h338.87v-10.556h-491.942v10.556zM743.306 658.078c-39.472-9.798-80.1-14.78-121.516-14.78-41.414 0-82.044 4.98-121.516 14.78h243.032zM385.32 571.514c-14.554 0-26.392 11.838-26.392 26.392s11.838 26.392 26.392 26.392c0.774 0 1.546-0.048 2.314-0.114 1.76-17.034 5.356-33.53 10.568-49.3-3.914-2.204-8.302-3.37-12.882-3.37zM460.272 524.538v111.902c51.986-16.48 106.104-24.81 161.518-24.81s109.532 8.332 161.518 24.81v-111.902c-37.282-48.432-95.812-79.706-161.518-79.706s-124.236 31.274-161.518 79.706zM621.79 31.090l-42.628 33.494 19.194 230.342h46.868l19.194-230.342-42.628-33.494zM647.56 326.598h-51.54l-17.074 65.452h85.688l-17.074-65.452zM890.986 391.68c9.050-5.13 19.492-8.076 30.614-8.076s21.566 2.946 30.614 8.076v-107.308h-61.228v107.308zM952.214 445.888c0-16.88-13.734-30.614-30.614-30.614s-30.614 13.734-30.614 30.614c0 16.88 13.734 30.614 30.614 30.614 16.88 0.002 30.614-13.734 30.614-30.614zM867.392 476.504c-5.13-9.050-8.076-19.492-8.076-30.614v-29.99l-11.494 60.604h19.57zM952.080 29.264c-1.43-15.856-14.532-27.812-30.48-27.812s-29.050 11.956-30.48 27.812c-0.034 0.366-0.078 0.726-0.136 1.084v40.778h61.228v-40.772c-0.054-0.358-0.102-0.72-0.132-1.090zM990.218 118.63c0-8.732-7.102-15.836-15.836-15.836h-109.79c-8.376 0-15.236 6.54-15.782 14.78h34.784c8.746 0 15.836 7.090 15.836 15.836s-7.090 15.836-15.836 15.836h-34.838v10.556h34.838c8.746 0 15.836 7.090 15.836 15.836s-7.090 15.836-15.836 15.836h-34.838v10.556h34.838c8.746 0 15.836 7.090 15.836 15.836s-7.090 15.836-15.836 15.836h-34.838v3.168c0 8.732 7.102 15.836 15.836 15.836h109.79c8.732 0 15.836-7.102 15.836-15.836v-118.24z" />
<glyph unicode="&#xe95c;" d="M136.182 254.812c-8.746 0-15.836-7.090-15.836-15.836v-160.462c0-8.746 7.090-15.836 15.836-15.836h261.806c8.746 0 15.836 7.090 15.836 15.836s-7.090 15.836-15.836 15.836h-245.972v144.626c0 8.746-7.090 15.836-15.834 15.836z" />
<glyph unicode="&#xe95d;" d="M182.622 121.794c6.1 0 11.914 3.548 14.516 9.492l19.29 44.088 25.824-30.988c5.662-6.796 16.174-7.556 22.758-1.632l34.206 30.786 32.574-16.286c6.344-3.172 14.028-1.738 18.8 3.512l42.226 46.45c5.882 6.472 5.404 16.486-1.066 22.37-6.472 5.882-16.488 5.406-22.37-1.066l-34.158-37.574-31.496 15.748c-5.818 2.912-12.834 1.964-17.674-2.392l-30-27-31.696 38.036c-7.408 8.888-22.040 6.794-26.672-3.79l-29.558-67.562c-4.492-10.272 3.248-22.192 14.496-22.192z" />
<glyph unicode="&#xe95e;" glyph-name="fax" d="M883.58 682.080h-404.7v27.96c-0.173 39.983-32.423 72.428-72.413 72.84h-119.588v122.4c0 13.26-10.747 24-24 24-13.26 0-24-10.74-24-24v-123.57c-36.78-3.743-64.77-34.71-64.8-71.67v-27.96h-37.5c-39.705 0-72.9-32.588-72.9-72.293v-468.263c0-39.705 33.195-71.445 72.9-71.445h37.5v-28.8c-0.075-39.69 32.055-71.933 71.745-72h160.643c39.825 0.015 72.165 32.175 72.413 72v28.8h404.7c39.705 0 72.9 31.74 72.9 71.445v468.263c0 39.705-33.195 72.293-72.9 72.293zM136.58 118.080c-13.238 0-24.9 10.207-24.9 23.445v468.263c0.413 13.478 11.415 24.21 24.9 24.293h37.5v-516zM430.88 41.28c0-13.26-10.747-24-24-24h-160.8c-13.26 0-24 10.74-24 24v669.6c0 13.26 10.74 24 24 24h160.8c13.253 0 24-10.74 24-24zM908.48 141.525c0-13.238-11.663-23.445-24.9-23.445h-404.7v516h404.7c13.478-0.083 24.488-10.815 24.9-24.293zM838.88 540.48c0 13.26-10.747 24-24 24h-249.6c-13.26 0-24-10.74-24-24v-100.8c0-13.26 10.74-24 24-24h249.6c13.253 0 24 10.74 24 24zM793.28 463.68h-204v52.8h204zM816.62 343.68h-250.335c-13.26 0-24-10.74-24-24s10.74-24 24-24h250.335c13.26 0 24 10.74 24 24s-10.74 24-24 24zM816.62 245.28h-250.335c-13.26 0-24-10.74-24-24s10.74-24 24-24h250.335c13.26 0 24 10.74 24 24s-10.74 24-24 24z" />
<glyph unicode="&#xe95f;" glyph-name="next" d="M1015.112 464.876l-327.68 225.28c-6.267 4.301-14.418 4.772-21.135 1.249-6.717-3.543-10.936-10.506-10.936-18.125v-204.8h-655.36v-40.96h655.36v-204.8c0-7.619 4.219-14.582 10.957-18.125 2.99-1.577 6.246-2.355 9.523-2.355 4.076 0 8.11 1.208 11.592 3.604l327.68 225.28c5.571 3.809 8.888 10.138 8.888 16.876s-3.318 13.066-8.888 16.876zM696.32 634.348l241.254-165.868h-241.254v165.868zM696.32 427.52h241.254l-241.254-165.868v165.868z" />
<glyph unicode="&#xe960;" d="M412.903 431.484h198.194v-198.194h-198.194v198.194z" />
<glyph unicode="&#xe961;" d="M280.774 679.226h462.452v-99.097h-462.452v99.097z" />
<glyph unicode="&#xe962;" d="M412.903 375.709c29.184-16.946 62.976-26.806 99.097-26.806s69.913 9.86 99.097 26.806v55.775h-198.194v-55.775z" />
<glyph unicode="&#xe963;" d="M346.839 679.226v-132.129c0-91.219 73.943-165.161 165.161-165.161s165.161 73.943 165.161 165.161v132.129h-330.323z" />
<glyph unicode="&#xe964;" d="M346.839 646.194c-36.484 0-66.065-29.58-66.065-66.065s29.58-66.065 66.065-66.065h330.323c36.484 0 66.065 29.58 66.065 66.065s-29.58 66.065-66.065 66.065h-330.323z" />
<glyph unicode="&#xe965;" d="M165.161 35.097h693.677v-82.581h-693.677v82.581z" />
<glyph unicode="&#xe966;" d="M858.839 206.699c0 44.891-30.191 84.183-73.563 95.744l-174.179 46.46-99.097-82.581-99.097 82.581-174.179-46.443c-43.371-11.578-73.563-50.853-73.563-95.761v-122.054h115.613v-132.129h462.452v132.129h115.613v122.054z" />
<glyph unicode="&#xe967;" d="M785.276 302.46l-141.345 37.69-16.318-40.795 124.499-49.796c25.038-10.009 42.529-32.999 45.502-59.788l11.677-105.125h49.548v122.054c0 44.907-30.175 84.183-73.563 95.761z" />
<glyph unicode="&#xe968;" d="M743.226 134.194h115.613v-49.548h-115.613v49.548z" />
<glyph unicode="&#xe969;" d="M165.161 134.194h115.613v-49.548h-115.613v49.548z" />
<glyph unicode="&#xe96a;" d="M743.226 84.645h148.645v-66.065h-148.645v66.065z" />
<glyph unicode="&#xe96b;" d="M132.129 84.645h148.645v-66.065h-148.645v66.065z" />
<glyph unicode="&#xe96c;" d="M759.742 745.29h-18.861c-16.021 112.062-112.392 198.194-228.881 198.194s-212.86-86.132-228.881-198.194v0h-18.861c-9.117 0-16.516-7.399-16.516-16.516v-33.032c0-9.117 7.399-16.516 16.516-16.516h495.484c9.117 0 16.516 7.399 16.516 16.516v33.032c0 9.117-7.399 16.516-16.516 16.516z" />
<glyph unicode="&#xe96d;" d="M759.742 745.29h-18.861c-16.021 112.062-112.392 198.194-228.881 198.194-14.105 0-27.879-1.321-41.29-3.733 97.33-17.557 173.502-95.975 187.59-194.461v0h18.861c9.117 0 16.516-7.399 16.516-16.516v-33.032c0-9.117-7.399-16.516-16.516-16.516h82.581c9.117 0 16.516 7.399 16.516 16.516v33.032c0 9.117-7.399 16.516-16.516 16.516z" />
<glyph unicode="&#xe96e;" d="M720.747 811.355h-417.495c-9.778-20.563-16.797-42.694-20.133-66.065v0h457.761c-3.336 23.37-10.356 45.502-20.133 66.065z" />
<glyph unicode="&#xe96f;" d="M677.161 745.29h63.719c-3.336 23.37-10.356 45.502-20.133 66.065h-82.498c9.778-20.546 16.698-42.711 20.051-66.065v0h18.861z" />
<glyph unicode="&#xe970;" d="M578.065 811.355c0-36.486-29.578-66.065-66.065-66.065s-66.065 29.578-66.065 66.065c0 36.486 29.578 66.065 66.065 66.065s66.065-29.578 66.065-66.065z" />
<glyph unicode="&#xe971;" d="M677.161 332.387l-66.065-165.161-99.097 99.097-99.097-99.097-66.065 165.161 66.065 16.516 99.097-82.581 99.097 82.581z" />
<glyph unicode="&#xe972;" d="M556.94 514.065h-89.881c-31.496 0-58.599-22.231-64.776-53.116l-6.276-31.364c29.828-29.432 70.772-47.649 115.993-47.649s86.165 18.217 115.993 47.649l-6.276 31.364c-6.177 30.885-33.28 53.116-64.776 53.116z" />
<glyph unicode="&#xe973;" d="M908.387 101.161h-33.032v105.555c0 52.29-35.295 98.221-85.818 111.699l-161.924 43.19v45.469c28.259 23.37 49.185 55.18 59.276 91.466 40.91 4.872 72.853 39.391 72.853 81.59v82.581c18.217 0 33.032 14.815 33.032 33.032v33.032c0 18.217-14.815 33.032-33.032 33.032h-5.219c-23.238 113.895-124.895 198.194-242.523 198.194s-219.285-84.298-242.523-198.194h-5.219c-18.217 0-33.032-14.815-33.032-33.032v-33.032c0-18.217 14.815-33.032 33.032-33.032v-82.581c0-42.199 31.942-76.717 72.853-81.59 10.091-36.286 31.017-68.096 59.276-91.466v-45.469l-161.924-43.19c-50.523-13.477-85.818-59.409-85.818-111.699v-105.555h-33.032v-99.097h33.032v-66.065h726.71v66.065h33.032v99.097zM654.501 320.231l-49.449-123.623-68.591 68.591 78.633 65.519 39.407-10.488zM414.043 435.58l4.426 22.132c4.625 23.073 25.055 39.837 48.59 39.837h89.864c23.535 0 43.966-16.764 48.59-39.837l4.426-22.132c-26.178-23.040-60.399-37.128-97.941-37.128s-71.763 14.088-97.957 37.128zM692.984 533.405c0.347 4.542 0.694 9.067 0.694 13.692v79.542c19.175-6.838 33.032-25.005 33.032-46.509 0-21.752-14.187-40.085-33.726-46.724zM726.71 645.764c-9.645 7.3-20.761 12.767-33.032 15.261v1.685h33.032v-16.946zM462.452 811.355c0 27.318 22.231 49.548 49.548 49.548s49.548-22.231 49.548-49.548-22.231-49.548-49.548-49.548-49.548 22.231-49.548 49.548zM592.913 794.839h117.116c4.459-10.62 8.209-21.603 10.917-33.032h-143.294c7.3 9.645 12.75 20.761 15.261 33.032zM512 926.968c74.719 0 141.989-39.292 180.587-99.097h-99.675c-7.68 37.64-41.043 66.065-80.913 66.065s-73.233-28.424-80.913-66.065h-99.675c38.598 59.805 105.868 99.097 180.587 99.097zM313.972 794.839h117.116c2.51-12.271 7.961-23.387 15.261-33.032h-143.294c2.709 11.429 6.458 22.412 10.917 33.032zM264.258 728.774h495.484l0.017-33.032h-495.5v33.032zM330.323 662.71v-1.668c-12.271-2.51-23.387-7.961-33.032-15.261v16.929h33.032zM297.29 580.129c0 21.504 13.857 39.672 33.032 46.509v-79.542c0-4.625 0.347-9.15 0.694-13.692-19.539 6.639-33.726 24.972-33.726 46.724zM363.355 662.71h297.29v-115.613c0-29.465-8.721-56.898-23.585-80.021-8.803 36.93-41.918 63.505-80.12 63.505h-89.864c-38.202 0-71.317-26.574-80.136-63.505-14.865 23.123-23.585 50.556-23.585 80.021v115.613zM512 365.419c29.746 0 57.773 7.333 82.581 20.051v-28.837l-82.581-68.823-82.581 68.823v28.837c24.807-12.717 52.835-20.051 82.581-20.051zM408.89 330.735l78.633-65.519-68.591-68.591-49.449 123.623 39.407 10.488zM181.677 206.716c0 37.359 25.204 70.161 61.308 79.789l94.357 25.154 69.533-173.816 105.125 105.125 105.125-105.125 69.533 173.816 94.357-25.154c36.104-9.629 61.308-42.446 61.308-79.789v-105.555h-82.581v99.097h-33.032v-231.226h-429.419v231.226h-33.032v-99.097h-82.581v105.555zM148.645 68.129h115.613v-33.032h-115.613v33.032zM181.677 2.065h82.581v-33.032h-82.581v33.032zM842.323-30.968h-82.581v33.032h82.581v-33.032zM875.355 35.097h-115.613v33.032h115.613v-33.032z" />
<glyph unicode="&#xe974;" d="M445.935 613.161c0-9.122-7.395-16.516-16.516-16.516s-16.516 7.395-16.516 16.516c0 9.122 7.395 16.516 16.516 16.516s16.516-7.395 16.516-16.516z" />
<glyph unicode="&#xe975;" d="M611.097 613.161c0-9.122-7.395-16.516-16.516-16.516s-16.516 7.395-16.516 16.516c0 9.122 7.395 16.516 16.516 16.516s16.516-7.395 16.516-16.516z" />
<glyph unicode="&#xe976;" d="M495.484 827.871h33.032v-33.032h-33.032v33.032z" />
<glyph unicode="&#xe977;" d="M578.065 117.677h115.613v-33.032h-115.613v33.032z" />
<glyph unicode="&#xe978;" d="M495.484 35.097h33.032v-33.032h-33.032v33.032z" />
<glyph unicode="&#xe979;" d="M495.484 101.161h33.032v-33.032h-33.032v33.032z" />
<glyph unicode="&#xe97a;" d="M495.484 167.226h33.032v-33.032h-33.032v33.032z" />
<glyph unicode="&#xe97b;" d="M462.452 464.516h99.097v-33.032h-99.097v33.032z" />
<glyph unicode="&#xe97c;" d="M1024 448c0-282.77-229.23-512-512-512s-512 229.23-512 512c0 282.77 229.23 512 512 512s512-229.23 512-512z" />
<glyph unicode="&#xe97d;" d="M1024 448c0 12.946-0.49 25.78-1.434 38.484l-332.596 332.598-310.492-320.54-63.578-32.712 94.132-94.132-13.092-1.944 96.36-96.36 259.416-277.356c161.416 86.15 271.284 256.212 271.284 451.962z" />
<glyph unicode="&#xe97e;" d="M562.18 320.924v55.644h-100.352v-55.644c0-4.44-3.6-8.040-8.040-8.040h-69.152v-192.022h254.742v192.022h-69.152c-4.448 0-8.046 3.6-8.046 8.040z" />
<glyph unicode="&#xe97f;" d="M650.308 312.884h-81.42v11.858h-113.778v-11.858h-81.42c-64.306 0-116.436-52.13-116.436-116.436v-192.674c75.028-43.116 162.006-67.774 254.746-67.774s179.72 24.658 254.744 67.774v192.674c0 64.304-52.13 116.436-116.436 116.436z" />
<glyph unicode="&#xe980;" d="M650.308 312.884h-81.42v11.858h-60.336v-388.682c1.152-0.006 2.292-0.058 3.444-0.058 92.74 0 179.72 24.658 254.744 67.774v192.674c0.004 64.302-52.126 116.434-116.432 116.434z" />
<glyph unicode="&#xe981;" d="M490.668 324.74l-141.88-57.524c-4.502-1.824-7.45-6.2-7.45-11.058v-290.964c7.958-2.814 16.002-5.448 24.134-7.872v282.148c0 4.854 2.94 9.222 7.434 11.054l182.354 74.218h-64.592z" />
<glyph unicode="&#xe982;" d="M385.298 493.166c0-22.149-17.955-40.104-40.104-40.104s-40.104 17.955-40.104 40.104c0 22.149 17.955 40.104 40.104 40.104s40.104-17.955 40.104-40.104z" />
<glyph unicode="&#xe983;" d="M710.358 493.166c0-22.149-17.955-40.104-40.104-40.104s-40.104 17.955-40.104 40.104c0 22.149 17.955 40.104 40.104 40.104s40.104-17.955 40.104-40.104z" />
<glyph unicode="&#xe984;" d="M512.244 326.148h-9.036c-83.592 0-151.356 67.764-151.356 151.356v138.192c0 83.592 67.764 151.356 151.356 151.356h9.036c83.592 0 151.356-67.764 151.356-151.356v-138.192c0-83.594-67.764-151.356-151.356-151.356z" />
<glyph unicode="&#xe985;" d="M512.244 767.050h-3.69v-440.902h3.69c83.592 0 151.356 67.764 151.356 151.356v138.192c0 83.59-67.764 151.354-151.356 151.354z" />
<glyph unicode="&#xe986;" d="M338.492 621.618v-128.462h24.124v67.884c-0.006 0-0.010 0-0.014 0 46.756 4.752 93.002 12.35 136.76 25.42v199.398c-89.156-1.848-160.87-74.646-160.87-164.24z" />
<glyph unicode="&#xe987;" d="M647.186 715.902c-29.724 42.342-78.89 70.046-134.554 70.046h-9.812c-1.158 0-2.304-0.062-3.458-0.086v-199.398c24.758 7.396 48.732 16.522 71.528 27.92 22.704-26.072 48.924-49.356 77.868-68.242v-52.982h28.204v128.462c-0.002 35.088-11.034 67.584-29.776 94.28z" />
<glyph unicode="&#xe988;" d="M449.84 510.958c0-8.609-6.979-15.588-15.588-15.588s-15.588 6.979-15.588 15.588c0 8.609 6.979 15.588 15.588 15.588s15.588-6.979 15.588-15.588z" />
<glyph unicode="&#xe989;" d="M596.786 510.958c0-8.609-6.979-15.588-15.588-15.588s-15.588 6.979-15.588 15.588c0 8.609 6.979 15.588 15.588 15.588s15.588-6.979 15.588-15.588z" />
<glyph unicode="&#xe98a;" d="M507.724 383.22c-28.086 0-50.928 22.846-50.928 50.928 0 4.762 3.858 8.62 8.62 8.62s8.62-3.858 8.62-8.62c0-18.576 15.116-33.688 33.688-33.688 18.574 0 33.688 15.116 33.688 33.688 0 4.762 3.858 8.62 8.62 8.62s8.62-3.858 8.62-8.62c0.004-28.084-22.842-50.928-50.928-50.928z" />
<glyph unicode="&#xe98b;" d="M558.656 434.146c0 4.762-3.858 8.62-8.62 8.62s-8.62-3.858-8.62-8.62c0-18.298-14.67-33.202-32.862-33.648v-17.24c27.702 0.45 50.102 23.086 50.102 50.888z" />
<glyph unicode="&#xe98c;" d="M455.112 325.602h113.778v-17.24h-113.778v17.24z" />
<glyph unicode="&#xe98d;" d="M430.4 290.022c-20.46-20.46-29.934-47.734-28.454-74.514 26.782-1.48 54.054 7.996 74.514 28.454 20.46 20.46 29.934 47.734 28.454 74.514-26.782 1.48-54.054-7.996-74.514-28.454z" />
<glyph unicode="&#xe98e;" d="M593.602 290.022c20.46-20.46 29.934-47.734 28.454-74.514-26.782-1.48-54.054 7.996-74.514 28.454-20.46 20.46-29.934 47.734-28.454 74.514 26.784 1.48 54.056-7.996 74.514-28.454z" />
<glyph unicode="&#xe98f;" d="M534.41 311.812c0-12.377-10.033-22.41-22.41-22.41s-22.41 10.033-22.41 22.41c0 12.377 10.033 22.41 22.41 22.41s22.41-10.033 22.41-22.41z" />
<glyph unicode="&#xe990;" d="M512.004 334.222c-1.176 0-2.32-0.118-3.448-0.294v-44.238c1.128-0.176 2.272-0.294 3.448-0.294 12.378 0 22.41 10.034 22.41 22.41s-10.036 22.416-22.41 22.416z" />
<glyph unicode="&#xe991;" d="M442.182 151.488c0-8.569-6.947-15.516-15.516-15.516s-15.516 6.947-15.516 15.516c0 8.569 6.947 15.516 15.516 15.516s15.516-6.947 15.516-15.516z" />
<glyph unicode="&#xe992;" d="M625.778 151.488c0-8.569-6.947-15.516-15.516-15.516s-15.516 6.947-15.516 15.516c0 8.569 6.947 15.516 15.516 15.516s15.516-6.947 15.516-15.516z" />
<glyph unicode="&#xe993;" d="M442.182 34.262c0-8.569-6.947-15.516-15.516-15.516s-15.516 6.947-15.516 15.516c0 8.569 6.947 15.516 15.516 15.516s15.516-6.947 15.516-15.516z" />
<glyph unicode="&#xe994;" d="M625.778 34.262c0-8.569-6.947-15.516-15.516-15.516s-15.516 6.947-15.516 15.516c0 8.569 6.947 15.516 15.516 15.516s15.516-6.947 15.516-15.516z" />
<glyph unicode="&#xe995;" d="M844.866 148.040h-3.654c-10.44 0-18.904 8.464-18.904 18.904v125.904h41.466v-125.904c0-10.44-8.466-18.904-18.908-18.904z" />
<glyph unicode="&#xe996;" d="M822.306 561.778c0 0 76.024-28.73 68.422-284.444h-68.422v284.444z" />
<glyph unicode="&#xe997;" d="M822.306 561.778v-25.856c21.246-32.526 47.156-104.152 42.564-258.59h25.858c7.6 255.716-68.422 284.446-68.422 284.446z" />
<glyph unicode="&#xe998;" d="M712.838 755.286c0 55.458-44.96 100.418-100.418 100.418-11.684 0-22.89-2.016-33.32-5.686-19.126 15.926-43.712 25.51-70.546 25.51s-51.42-9.584-70.546-25.51c-10.43 3.668-21.638 5.686-33.32 5.686-55.458 0-100.418-44.96-100.418-100.418 0-29.802 12.994-56.562 33.616-74.952v-128.9h341.334v128.9c20.62 18.39 33.618 45.15 33.618 74.952z" />
<glyph unicode="&#xe999;" d="M612.42 855.704c-11.684 0-22.89-2.016-33.32-5.686-19.126 15.922-43.712 25.51-70.542 25.51v-324.094h170.666v128.9c20.622 18.39 33.616 45.15 33.616 74.952-0.002 55.458-44.962 100.418-100.42 100.418z" />
<glyph unicode="&#xe99a;" d="M337.886 604.014h341.334v-56.888h-341.334v56.888z" />
<glyph unicode="&#xe99b;" d="M508.552 604.014h170.666v-56.888h-170.666v56.888z" />
<glyph unicode="&#xe99c;" d="M771.974 408.199l-246.226 361.337c-5.626 8.254-17.796 8.254-23.42 0l-246.228-361.337c-10.826-15.886-8.898-37.21 4.6-50.9l117.308-118.956c7.104-7.204 11.090-16.918 11.090-27.038v-66.586h249.88v66.586c0 10.118 3.982 19.832 11.088 27.034l117.31 118.96c13.494 13.688 15.422 35.014 4.598 50.9z" />
<glyph unicode="&#xe99d;" d="M418.035 238.341l-117.308 118.956c-13.498 13.688-15.426 35.014-4.602 50.9l237.924 349.151-8.304 12.186c-5.626 8.254-17.796 8.254-23.42 0l-246.224-361.335c-10.826-15.886-8.898-37.21 4.602-50.9l117.308-118.956c7.104-7.204 11.090-16.918 11.090-27.038v-66.586h40.026v66.586c-0.004 10.12-3.988 19.832-11.092 27.036z" />
<glyph unicode="&#xe99e;" d="M534.765 391.453h-41.454c-20.666 0-37.422-16.756-37.422-37.422s16.756-37.422 37.422-37.422h41.454c20.666 0 37.422 16.756 37.422 37.422s-16.758 37.422-37.422 37.422z" />
<glyph unicode="&#xe99f;" d="M534.765 356.191h-41.454c-13.39 0-25.106 7.056-31.72 17.632-3.592-5.746-5.704-12.514-5.704-19.792 0-20.668 16.756-37.422 37.422-37.422h41.454c20.666 0 37.422 16.754 37.422 37.422 0 7.276-2.11 14.046-5.704 19.792-6.612-10.576-18.326-17.632-31.716-17.632z" />
<glyph unicode="&#xe9a0;" d="M412.419 38.532v-66.182c0-12.038 9.758-21.796 21.796-21.796h159.642c12.038 0 21.796 9.758 21.796 21.796v66.182h-203.234z" />
<glyph unicode="&#xe9a1;" d="M452.445-27.65v66.182h-40.026v-66.182c0-12.038 9.758-21.796 21.796-21.796h40.026c-12.036 0-21.796 9.758-21.796 21.796z" />
<glyph unicode="&#xe9a2;" d="M648.401 146.484h-268.727c-13.208 0-24.016-10.808-24.016-24.016v-61.040c0-13.208 10.808-24.016 24.016-24.016h268.727c13.208 0 24.016 10.808 24.016 24.016v61.040c0 13.208-10.806 24.016-24.016 24.016z" />
<glyph unicode="&#xe9a3;" d="M648.401 77.438h-268.727c-13.208 0-24.016 10.808-24.016 24.016v-40.026c0-13.208 10.808-24.016 24.016-24.016h268.727c13.208 0 24.016 10.808 24.016 24.016v40.026c0-13.208-10.806-24.016-24.016-24.016z" />
<glyph unicode="&#xe9a4;" d="M130.89 540.881h-42.328c-12.966 0-23.478-10.51-23.478-23.478v-42.326c0-12.966 10.51-23.478 23.478-23.478h42.328c12.966 0 23.478 10.51 23.478 23.478v42.326c-0.002 12.966-10.512 23.478-23.478 23.478z" />
<glyph unicode="&#xe9a5;" d="M105.112 475.077v42.326c0 12.966 10.51 23.478 23.478 23.478h-40.028c-12.966 0-23.478-10.51-23.478-23.478v-42.326c0-12.966 10.51-23.478 23.478-23.478h40.026c-12.966 0-23.476 10.514-23.476 23.478z" />
<glyph unicode="&#xe9a6;" d="M154.366 899.9c0-24.654-19.986-44.64-44.64-44.64s-44.64 19.986-44.64 44.64c0 24.654 19.986 44.64 44.64 44.64s44.64-19.986 44.64-44.64z" />
<glyph unicode="&#xe9a7;" d="M105.112 899.892c0 17.456 10.026 32.562 24.628 39.9-6.022 3.026-12.814 4.74-20.014 4.74-24.654 0-44.642-19.986-44.642-44.64s19.988-44.642 44.642-44.642c7.198 0 13.992 1.714 20.014 4.74-14.602 7.338-24.628 22.444-24.628 39.902z" />
<glyph unicode="&#xe9a8;" d="M935.296 540.881h-42.326c-12.966 0-23.478-10.51-23.478-23.478v-42.326c0-12.966 10.51-23.478 23.478-23.478h42.326c12.966 0 23.478 10.51 23.478 23.478v42.326c-0.002 12.966-10.512 23.478-23.478 23.478z" />
<glyph unicode="&#xe9a9;" d="M909.518 475.077v42.326c0 12.966 10.51 23.478 23.478 23.478h-40.026c-12.966 0-23.478-10.51-23.478-23.478v-42.326c0-12.966 10.51-23.478 23.478-23.478h40.026c-12.968 0-23.478 10.514-23.478 23.478z" />
<glyph unicode="&#xe9aa;" d="M534.203 944.532h-42.326c-12.966 0-23.478-10.51-23.478-23.478v-42.326c0-12.966 10.51-23.478 23.478-23.478h42.326c12.966 0 23.478 10.51 23.478 23.478v42.326c0 12.966-10.51 23.478-23.478 23.478z" />
<glyph unicode="&#xe9ab;" d="M508.427 878.728v42.326c0 12.966 10.51 23.478 23.478 23.478h-40.026c-12.966 0-23.478-10.51-23.478-23.478v-42.326c0-12.966 10.51-23.478 23.478-23.478h40.026c-12.968 0-23.478 10.514-23.478 23.478z" />
<glyph unicode="&#xe9ac;" d="M958.568 899.5c0-24.654-19.986-44.64-44.64-44.64s-44.64 19.986-44.64 44.64c0 24.654 19.986 44.64 44.64 44.64s44.64-19.986 44.64-44.64z" />
<glyph unicode="&#xe9ad;" d="M909.308 899.502c0 17.456 10.026 32.562 24.628 39.9-6.022 3.026-12.814 4.74-20.014 4.74-24.654 0-44.642-19.986-44.642-44.64s19.988-44.64 44.642-44.64c7.198 0 13.992 1.714 20.014 4.74-14.602 7.338-24.628 22.444-24.628 39.9z" />
<glyph unicode="&#xe9ae;" d="M935.37 556.349h-8.16c-20.706 145.108-117.226 272.243-258.617 328.989h187.67c6.672-25.65 30.028-44.642 57.736-44.642 32.892 0 59.652 26.76 59.652 59.652s-26.764 59.652-59.654 59.652c-27.708 0-51.062-18.992-57.736-44.642h-283.495v6.156c0 21.222-17.266 38.486-38.486 38.486h-42.326c-21.222 0-38.488-17.266-38.488-38.486v-6.154h-285.929c-6.674 25.648-30.026 44.64-57.736 44.64-32.89 0-59.65-26.76-59.65-59.652s26.76-59.652 59.65-59.652c27.708 0 51.062 18.992 57.734 44.642h190.104c-141.334-56.722-237.906-183.828-258.615-328.989h-10.384c-21.222 0-38.488-17.266-38.488-38.486v-42.326c0-21.222 17.266-38.486 38.488-38.486h42.326c21.222 0 38.486 17.266 38.486 38.486v42.326c0 21.222-17.266 38.486-38.486 38.486h-1.62c25.558 165.88 158.264 298.697 324.119 324.405v-1.566c0-21.222 17.266-38.488 38.488-38.488h42.326c21.222 0 38.486 17.266 38.486 38.488v1.566c165.856-25.706 298.559-158.526 324.119-324.405h-3.84c-21.222 0-38.488-17.266-38.488-38.486v-42.326c0-21.222 17.266-38.486 38.488-38.486h42.324c21.222 0 38.488 17.266 38.488 38.486v42.326c0.002 21.22-17.262 38.486-38.484 38.486zM139.43 517.861v-42.326c0-4.67-3.798-8.466-8.466-8.466h-42.328c-4.67 0-8.468 3.796-8.468 8.466v42.326c0 4.67 3.798 8.466 8.468 8.466h42.326c4.67 0.002 8.468-3.796 8.468-8.466zM913.996 929.98c16.338 0 29.632-13.292 29.632-29.632s-13.292-29.632-29.632-29.632c-15.73 0-28.6 12.332-29.54 27.83 0.070 0.59 0.118 1.188 0.118 1.8s-0.048 1.208-0.118 1.8c0.94 15.502 13.808 27.834 29.54 27.834zM109.8 870.718c-16.338 0-29.632 13.292-29.632 29.632s13.294 29.63 29.632 29.63 29.63-13.292 29.63-29.632-13.292-29.63-29.63-29.63zM534.277 870.718h-42.326c-4.67 0-8.468 3.798-8.468 8.468 0 16.266 0 26.542 0 42.326 0 4.67 3.798 8.466 8.468 8.466h42.326c4.67 0 8.466-3.796 8.466-8.466 0-15.822 0-26.052 0-42.326 0.002-4.668-3.796-8.468-8.466-8.468zM943.836 475.535c0-4.67-3.798-8.466-8.468-8.466h-42.324c-4.67 0-8.468 3.796-8.468 8.466v42.326c0 4.67 3.798 8.466 8.468 8.466h42.324c4.67 0 8.468-3.796 8.468-8.466v-42.326z" />
<glyph unicode="&#xe9af;" d="M751.855 363.321l-112.402-113.984c-9.938-10.076-15.41-23.422-15.41-37.574v-51.576h-219.86v51.576c0 14.156-5.474 27.5-15.41 37.576l-117.308 118.956c-8.438 8.558-9.65 21.976-2.884 31.908l230.522 338.291v-331.573h-5.716c-28.912 0-52.432-23.522-52.432-52.43 0-28.912 23.522-52.432 52.432-52.432h41.454c28.912 0 52.432 23.522 52.432 52.432s-23.522 52.43-52.432 52.43h-5.716v331.575l220.864-324.123c4.67-6.848 14.004-8.618 20.858-3.952 6.85 4.67 8.62 14.008 3.952 20.858l-236.574 347.167c-11.574 16.986-36.698 16.914-48.228 0l-246.226-361.337c-14.824-21.752-12.168-51.148 6.316-69.892l117.308-118.956c4.362-4.422 6.764-10.282 6.764-16.496v-52.024c-18.874-2.726-33.438-18.962-33.438-38.58v-58.152c0-21.518 17.508-39.026 39.026-39.026h17.736v-51.172c0-20.298 16.51-36.808 36.806-36.808h42.69c8.29 0 15.010 6.718 15.010 15.010s-6.72 15.010-15.010 15.010h-42.688c-3.742 0-6.786 3.044-6.786 6.788v51.172h173.216v-51.172c0-3.742-3.044-6.788-6.786-6.788h-46.908c-8.292 0-15.010-6.718-15.010-15.010s6.718-15.010 15.010-15.010h46.908c20.296 0 36.806 16.51 36.806 36.808v51.172h17.736c21.518 0 39.026 17.508 39.026 39.026v58.152c0 19.618-14.566 35.854-33.44 38.58v52.024c0 6.214 2.402 12.072 6.764 16.494l112.402 113.986c5.822 5.902 5.756 15.404-0.146 21.224-5.904 5.822-15.41 5.756-21.228-0.148zM557.251 354.489c0-12.358-10.054-22.412-22.412-22.412h-41.454c-12.358 0-22.412 10.054-22.412 22.412s10.054 22.41 22.412 22.41h41.454c12.358 0.002 22.412-10.052 22.412-22.41zM657.481 121.158v-58.152c0-4.882-4.124-9.006-9.006-9.006-9.86 0-259.035 0-268.727 0-4.882 0-9.006 4.124-9.006 9.006v58.152c0 4.882 4.124 9.006 9.006 9.006 9.682 0 258.957 0 268.727 0 4.882 0 9.006-4.122 9.006-9.006z" />
<glyph unicode="&#xe9b0;" d="M141.39 449.508v85.294c-4.236 1.406-8.752 2.198-13.46 2.198-23.548 0-42.638-19.046-42.638-42.54v-37.352c0-23.496 19.090-42.54 42.638-42.54 5.73 0 11.19 1.144 16.18 3.192-1.78 10.316-2.72 20.922-2.72 31.748z" />
<glyph unicode="&#xe9b1;" d="M527.29 537c-4.708 0-9.226-0.79-13.46-2.198v-85.294c0-10.826-0.938-21.432-2.72-31.75 4.992-2.046 10.45-3.192 16.18-3.192 23.548 0 42.64 19.044 42.64 42.54v37.354c0 23.494-19.092 42.54-42.64 42.54z" />
<glyph unicode="&#xe9b2;" d="M244.442-39v27.030c0 5.5 4.5 10 10 10h58.944c-2.090 4.4-3.294 9.306-3.294 14.51 0 6.792 3.188 18.398 3.188 18.398 15.128 40.79 82.488 71.544 163.302 71.544 5.384 0 10.702-0.146 15.956-0.414 28.458 18.446 67.112 31.84 111.072 37.488v47.748c0 17.164-13.996 31.126-31.2 31.126h-139.42v56.94c0 3.446-1.714 6.666-4.576 8.596-1.746 1.178-3.778 1.78-5.826 1.78-1.308 0-2.626-0.246-3.876-0.748l-91.104-36.516-91.104 36.516c-1.25 0.502-2.564 0.748-3.876 0.748-2.048 0-4.080-0.602-5.824-1.78-2.864-1.93-4.576-5.15-4.576-8.596v-56.94h-139.42c-17.206 0-31.202-13.962-31.202-31.126v-225.928c0-5.73 4.656-10.376 10.4-10.376h192.432c-5.496 0-9.996 4.5-9.996 10z" />
<glyph unicode="&#xe9b3;" d="M445.122 218.42h45.76v-102.9h-45.76v102.9z" />
<glyph unicode="&#xe9b4;" d="M164.322 218.42h45.76v-102.9h-45.76v102.9z" />
<glyph unicode="&#xe9b5;" d="M244.442-39v27.030c0 5.5 4.5 10 10 10h58.944c-2.090 4.4-3.294 9.306-3.294 14.51 0 6.792 3.188 18.398 3.188 18.398 15.128 40.79 82.488 71.544 163.302 71.544 5.384 0 10.702-0.146 15.956-0.414 4.058 2.63 8.368 5.134 12.828 7.554-1.682 3.48-5.228 5.916-9.344 5.916h-336.82c-5.72 0-10.4-4.67-10.4-10.376v-154.162h105.64c-5.5 0-10 4.5-10 10z" />
<glyph unicode="&#xe9b6;" d="M141.39 570.834v-121.326c0-102.608 83.374-185.786 186.218-185.786 102.846 0 186.218 83.178 186.218 185.786v121.326h-372.436z" />
<glyph unicode="&#xe9b7;" d="M184.002 449.508v121.326h-42.612v-121.326c0-102.608 83.374-185.786 186.218-185.786 7.206 0 14.312 0.422 21.306 1.218-92.808 10.548-164.912 89.15-164.912 184.568z" />
<glyph unicode="&#xe9b8;" d="M455.538 570.834c-14.416-17.952-32.108-33.162-52.162-44.764 9.606-1.526 19.452-2.326 29.488-2.326 29.022 0 56.478 6.642 80.962 18.458v28.632h-58.288z" />
<glyph unicode="&#xe9b9;" d="M354.268 570.834c-28.766-30.59-67.786-51.46-111.602-57.134 20.924-8.12 43.678-12.586 67.478-12.586 58.828 0 111.268 27.222 145.394 69.72h-101.27z" />
<glyph unicode="&#xe9ba;" d="M141.39 570.834v-42.102c23.488-10.67 49.586-16.618 77.078-16.618 53.574 0 101.844 22.588 135.816 58.718l-212.894 0.002z" />
<glyph unicode="&#xe9bb;" d="M465.93 895.196c-16.238 0-31.578-3.806-45.204-10.544-15.878 35.552-51.584 60.348-93.116 60.348s-77.236-24.796-93.116-60.35c-13.626 6.738-28.966 10.544-45.204 10.544-56.288 0-101.92-45.524-101.92-101.682 0-40.966 24.292-76.248 59.28-92.354v-58.494h124.082c-4.542 8.79-7.124 18.758-7.124 29.334 0 35.346 28.654 64 64 64 35.348 0 64-28.654 64-64 0-10.576-2.58-20.546-7.124-29.334h124.084v58.496c34.984 16.106 59.28 51.386 59.28 92.354 0.002 56.158-45.63 101.682-101.918 101.682z" />
<glyph unicode="&#xe9bc;" d="M146.65 642.666h32.632v80.196c-34.988 16.104-59.28 51.386-59.28 92.352 0 28.238 11.552 53.766 30.182 72.184-36.874-15.3-62.814-51.556-62.814-93.884 0-40.966 24.292-76.248 59.28-92.354 0 0 0-58.494 0-58.494z" />
<glyph unicode="&#xe9bd;" d="M520.976 642.666h-136.492c-10.638-20.584-32.104-34.666-56.874-34.666s-46.236 14.082-56.876 34.666h-136.49c-5.5 0-10-4.5-10-10v-51.832c0-5.5 4.5-10 10-10h386.732c5.5 0 10 4.5 10 10v51.832c0 5.5-4.5 10-10 10z" />
<glyph unicode="&#xe9be;" d="M639.78-1.97c2.090 4.4 3.294 9.306 3.294 14.51 0 6.792-3.188 18.398-3.188 18.398-15.128 40.79-82.49 71.544-163.304 71.544s-148.174-30.754-163.302-71.544c0 0-3.188-11.608-3.188-18.398 0-5.204 1.204-10.11 3.294-14.51h326.394z" />
<glyph unicode="&#xe9bf;" d="M368.314-1.97c-2.090 4.4-3.294 9.306-3.294 14.51 0 6.792 3.188 18.398 3.188 18.398 13.378 36.066 67.598 64.268 135.84 70.32-8.938 0.792-18.106 1.222-27.464 1.222-80.814 0-148.174-30.754-163.302-71.544 0 0-3.188-11.608-3.188-18.398 0-5.204 1.204-10.11 3.294-14.51l54.926 0.002z" />
<glyph unicode="&#xe9c0;" d="M906.016-39c0-5.5-4.5-10-10-10h-641.574c-5.5 0-10 4.5-10 10v27.030c0 5.5 4.5 10 10 10h641.574c5.5 0 10-4.5 10-10v-27.030z" />
<glyph unicode="&#xe9c1;" d="M855.042 48.93c-18.944 53.366-103.29 93.602-204.48 93.602-63.184 0-119.796-15.688-158.024-40.464 73.598-3.738 133.228-33.056 147.35-71.13 0 0 3.188-11.608 3.188-18.398 0-5.204-1.204-10.11-3.294-14.51h210.598c5.422 7.436 8.652 16.732 8.652 26.828 0 8.884-3.99 24.072-3.99 24.072z" />
<glyph unicode="&#xe9c2;" d="M391.602 672c0-35.346-28.654-64-64-64s-64 28.654-64 64c0 35.346 28.654 64 64 64s64-28.654 64-64z" />
<glyph unicode="&#xe9c3;" d="M190.342 88.44c-3.96 0-7.82-1.6-10.62-4.398-2.8-2.8-4.4-6.66-4.4-10.602 0-3.958 1.6-7.818 4.4-10.62 2.8-2.78 6.66-4.38 10.62-4.38 3.94 0 7.8 1.602 10.6 4.38 2.78 2.8 4.38 6.66 4.38 10.62 0 3.942-1.6 7.82-4.38 10.602-2.8 2.798-6.66 4.398-10.6 4.398z" />
<glyph unicode="&#xe9c4;" d="M237.61 466c-8.284 0-15-6.714-15-15v-20.752c0-8.286 6.716-15 15-15s15 6.714 15 15v20.752c0 8.286-6.716 15-15 15z" />
<glyph unicode="&#xe9c5;" d="M417.61 415.248c8.284 0 15 6.714 15 15v20.752c0 8.286-6.716 15-15 15s-15-6.714-15-15v-20.752c0-8.286 6.716-15 15-15z" />
<glyph unicode="&#xe9c6;" d="M381.36 347.518c2.284 7.962-2.32 16.27-10.284 18.552s-16.27-2.32-18.554-10.284c-3.174-11.060-13.416-18.788-24.914-18.788-11.496 0-21.74 7.726-24.912 18.788-2.284 7.962-10.584 12.57-18.554 10.284-7.962-2.284-12.566-10.59-10.284-18.552 6.842-23.856 28.946-40.518 53.752-40.518s46.908 16.662 53.75 40.518z" />
<glyph unicode="&#xe9c7;" d="M324.49 380.92h21.12c8.284 0 15 6.714 15 15s-6.716 15-15 15h-14.12v33.328c0 8.286-6.716 15-15 15s-15-6.714-15-15v-40.328c0-12.682 10.318-23 23-23z" />
<glyph unicode="&#xe9c8;" d="M333.602 173c3.96 0 7.82 1.6 10.62 4.4 2.78 2.78 4.38 6.66 4.38 10.6 0 3.96-1.6 7.82-4.38 10.6-2.8 2.8-6.66 4.4-10.62 4.4-3.94 0-7.8-1.6-10.6-4.4-2.8-2.78-4.4-6.638-4.4-10.6 0-3.94 1.6-7.82 4.4-10.6 2.8-2.8 6.66-4.4 10.6-4.4z" />
<glyph unicode="&#xe9c9;" d="M896.016 13.030h-23.16c0.756 3.824 1.174 7.776 1.174 11.828 0 10.52-4.024 26.136-4.482 27.884l-0.372 1.206c-4.232 11.924-11.204 23.376-20.72 34.038-5.518 6.182-15 6.72-21.178 1.204-6.18-5.518-6.718-15-1.202-21.18 6.75-7.564 11.666-15.47 14.618-23.51 1.188-4.668 3.338-14.626 3.338-19.64 0-4.212-0.846-8.208-2.342-11.828h-183.626c-0.114 8.35-3.102 19.66-3.712 21.88-0.116 0.42-0.25 0.834-0.402 1.244-12.858 34.666-54.644 61.752-109.616 74.068 14.516 5.122 30.304 9.236 46.96 12.168-0.804-4.77 0.706-9.84 4.488-13.412 2.898-2.738 6.6-4.096 10.296-4.096 3.982 0 7.956 1.576 10.908 4.7l16.546 17.518c5.63 0.276 11.306 0.432 17.028 0.432 0.282 0 0.562-0.010 0.844-0.012l-7.644-8.060c-5.7-6.012-5.448-15.506 0.564-21.206 2.9-2.752 6.612-4.116 10.318-4.116 3.972 0 7.938 1.568 10.888 4.68l25.072 26.44c5.536-0.626 11.012-1.38 16.41-2.266l-5.54-5.852c-5.696-6.016-5.436-15.51 0.58-21.206 2.9-2.746 6.61-4.108 10.31-4.108 3.976 0 7.946 1.572 10.896 4.688l16.306 17.222c0.516 0.544 0.966 1.128 1.386 1.726 15.206-4.322 29.452-9.73 42.312-16.194 7.404-3.718 16.418-0.736 20.138 6.668 3.72 7.402 0.734 16.418-6.668 20.136-40.362 20.284-92.274 31.454-146.172 31.454-10.852 0-21.506-0.472-31.952-1.322v31.094c0 25.434-20.724 46.126-46.2 46.126h-124.42v55.284c36.234 27.080 63.048 66.050 74.586 111.058 1.556-0.126 3.126-0.206 4.714-0.206 31.784 0 57.64 25.812 57.64 57.542v37.352c0 31.212-25.030 56.682-56.102 57.502v5.154c9.946 3.302 17.148 12.678 17.148 23.718v51.832c0 12.908-9.834 23.562-22.406 24.866v34.476c4.716 2.672 9.254 5.676 13.56 8.978 6.574 5.042 7.816 14.458 2.774 21.032-5.040 6.574-14.458 7.812-21.030 2.774-5.14-3.942-10.716-7.306-16.578-10.006-0.13-0.060-0.244-0.14-0.372-0.206-0.036-0.016-0.074-0.026-0.11-0.042-11.294-5.114-23.368-7.706-35.886-7.706-8.284 0-15-6.714-15-15s6.716-15 15-15c9.424 0 18.658 1.136 27.64 3.312v-22.478h-88.284c0.856 4.652 1.328 9.438 1.328 14.334 0 43.56-35.44 79-79 79s-79-35.44-79-79c0-4.896 0.47-9.682 1.328-14.334h-88.288v22.52c8.868-2.164 18.114-3.354 27.64-3.354 8.284 0 15 6.714 15 15s-6.716 15-15 15c-17.432 0-33.668 5.162-47.29 14.008v-0.038c-24.41 15.84-39.63 43.206-39.63 72.71 0 47.796 38.992 86.682 86.92 86.682 13.52 0 26.492-3.026 38.554-8.99 3.66-1.808 7.896-2.046 11.732-0.668 3.838 1.382 6.95 4.272 8.614 7.996 13.964 31.27 45.138 51.472 79.42 51.472s65.458-20.202 79.422-51.466c1.664-3.724 4.774-6.614 8.614-7.996 3.838-1.378 8.076-1.142 11.732 0.668 12.062 5.964 25.034 8.99 38.554 8.99 47.928 0 86.92-38.884 86.92-86.682 0-7.372-0.928-14.69-2.758-21.752-2.078-8.020 2.738-16.206 10.758-18.282 8.016-2.086 16.206 2.738 18.284 10.758 2.466 9.518 3.716 19.368 3.716 29.276 0 64.338-52.45 116.682-116.92 116.682-13.222 0-26.062-2.156-38.328-6.422-21.010 34.566-58.838 56.226-99.994 56.226-41.154 0-78.984-21.66-99.992-56.226-12.266 4.266-25.104 6.422-38.328 6.422-64.47 0-116.92-52.344-116.92-116.682 0-42.082 22.974-80.926 59.28-101.506v-34.476c-12.572-1.302-22.406-11.958-22.406-24.866v-51.832c0-11.042 7.202-20.414 17.146-23.716v-5.156c-31.072-0.82-56.1-26.29-56.1-57.502v-37.352c0-31.728 25.856-57.542 57.638-57.542 1.588 0 3.158 0.078 4.712 0.206 11.538-45.008 38.354-83.98 74.588-111.060v-55.282h-124.42c-25.476 0-46.202-20.694-46.202-46.126v-225.928c0-13.992 11.394-25.376 25.4-25.376h834.006c13.786 0 25 11.214 25 25v27.030c0.004 13.784-11.212 25-24.996 25zM100.292 457.108v37.352c0 14.668 11.578 26.66 26.1 27.462v-72.414c0-6.718 0.338-13.362 0.988-19.914-14.986 0.296-27.088 12.514-27.088 27.514zM505.888 203.43h66.522c8.932 0 16.2-7.234 16.2-16.126v-34.766c-30.094-4.952-57.588-13.448-81.046-24.8-0.55 0.284-1.102 0.564-1.676 0.806v74.886zM460.13 203.43h15.76v-72.892h-15.76v72.892zM451.612 86.446c5.654 0.468 11.442 0.798 17.394 0.944l-8.448-8.504c-5.838-5.876-5.806-15.376 0.072-21.212 2.926-2.906 6.748-4.358 10.57-4.358 3.856 0 7.712 1.478 10.642 4.43l27.736 27.924c4.944-0.55 9.764-1.218 14.45-1.998l-5.868-5.906c-5.838-5.876-5.806-15.374 0.070-21.212 2.926-2.906 6.748-4.358 10.572-4.358 3.854 0 7.71 1.478 10.642 4.43l18.682 18.806c36.364-11.856 60.316-30.792 67.47-49.118 1.040-3.938 2.328-10.144 2.454-13.284h-302.934c0.124 3.22 1.448 9.458 2.456 13.29 7.538 19.298 33.702 39.272 73.372 50.94-3.296-5.746-2.49-13.2 2.434-18.090 2.926-2.906 6.748-4.358 10.57-4.358 3.856 0 7.71 1.478 10.642 4.43l27.022 27.204zM430.13 203.708v-73.172h-41.76v99.602c0 6.128-3.73 11.642-9.418 13.924l-11.022 4.418 50.062 20.066v-50.118c-0.002-7.304 5.222-13.382 12.138-14.72zM327.61 721c27.018 0 49-21.98 49-49s-21.982-49-49-49-49 21.98-49 49 21.98 49 49 49zM139.244 627.666h123.014c14.228-20.906 38.21-34.666 65.35-34.666s51.124 13.76 65.35 34.666h123.016v-41.832h-376.73v41.832zM498.828 555.834v-3.94c-16.724-6.992-34.266-11.168-52.368-12.576 5.644 5.176 10.998 10.694 16.044 16.516h36.324zM360.63 555.834h59.162c-30.376-25.222-69.1-39.72-109.648-39.72-2.008 0-4.008 0.036-6.006 0.104 20.864 9.798 39.99 23.17 56.492 39.616zM218.468 527.116c-21.498 0-42.334 3.886-62.078 11.568v17.15h156.996c-27.718-18.452-60.596-28.718-94.918-28.718zM156.39 449.508v57.354c19.944-6.466 40.736-9.746 62.078-9.746 7.566 0 15.072 0.424 22.492 1.254 22.154-8.1 45.398-12.256 69.184-12.256 33.982 0 66.864 8.684 95.884 24.41 8.832-1.176 17.784-1.78 26.836-1.78 22.756 0 44.852 3.714 65.962 11.050v-9.794c0-8.286 6.716-15 15-15s15 6.714 15 15v11.922c14.524-0.802 26.102-12.794 26.102-27.462v-37.352c0-15-12.104-27.216-27.090-27.514 0.65 6.552 0.988 13.196 0.988 19.914 0 8.286-6.716 15-15 15s-15-6.714-15-15c0-94.172-76.808-170.786-171.218-170.786s-171.218 76.614-171.218 170.786zM179.33 203.43h15.76v-72.892h-15.76v72.892zM149.33 128.542c-9.118-3.856-15.53-12.884-15.53-23.38v-139.162h-7.192v98.512c0 8.286-6.716 15-15 15s-15-6.714-15-15v-98.512h-30v221.302c0 8.892 7.268 16.126 16.202 16.126h66.52v-74.886zM229.442-11.97v-22.030h-65.64v134.538h68.2c8.284 0 15 6.714 15 15s-6.716 15-15 15h-6.912v73.172c6.916 1.336 12.14 7.414 12.14 14.72v50.116l121.138-48.554v-89.454h-9.794c-0.138 3.772-1.698 7.41-4.352 10.062-2.8 2.8-6.66 4.4-10.62 4.4-3.94 0-7.8-1.6-10.6-4.4-2.674-2.652-4.236-6.292-4.372-10.062h-24.628c-8.284 0-15-6.714-15-15s6.716-15 15-15h82.006c-38.454-14.384-66.642-37.018-76.792-64.382-0.152-0.41-0.286-0.824-0.402-1.244-0.61-2.22-3.598-13.532-3.712-21.88h-40.66c-13.786-0.002-25-11.218-25-25.002zM891.016-34h-631.574v17.030h631.574v-17.030z" />
<glyph unicode="&#xe9ca;" d="M906.636 433.628h-45.37c-8.284 0-15-6.714-15-15s6.716-15 15-15h45.37c27.988 0 50.758-22.858 50.758-50.952 0-28.096-22.77-50.954-50.758-50.954h-130.49c-38.654 0-70.1-31.52-70.1-70.262v-35.88c0-8.286 6.716-15 15-15s15 6.714 15 15v35.88c0 22.202 17.988 40.262 40.1 40.262h130.49c44.53 0 80.758 36.316 80.758 80.954 0 44.636-36.228 80.952-80.758 80.952z" />
<glyph unicode="&#xe9cb;" d="M729.216 571.468h26.786c8.284 0 15 6.714 15 15s-6.716 15-15 15h-26.786c-22.316 0-40.47 18.23-40.47 40.638 0 22.406 18.156 40.634 40.47 40.634 8.284 0 15 6.714 15 15s-6.716 15-15 15c-38.858 0-70.47-31.688-70.47-70.634 0-38.95 31.614-70.638 70.47-70.638z" />
<glyph unicode="&#xe9cc;" d="M820.002 571.468h19.3c17.358 0 31.48-14.184 31.48-31.62v-30.268c0-8.286 6.716-15 15-15s15 6.714 15 15v30.268c0 33.976-27.58 61.62-61.48 61.62h-19.3c-8.284 0-15-6.714-15-15 0-8.284 6.716-15 15-15z" />
<glyph unicode="&#xe9cd;" d="M730.922 354.932h102.552c8.284 0 15 6.714 15 15s-6.716 15-15 15h-102.552c-29.682 0-53.83 24.24-53.83 54.036s24.148 54.034 53.83 54.034h36.818c8.284 0 15 6.714 15 15s-6.716 15-15 15h-36.818c-46.224 0-83.83-37.698-83.83-84.034 0-46.338 37.606-84.036 83.83-84.036z" />
<glyph unicode="&#xe9ce;" d="M294.002 672c0 30.102 20.79 55.338 48.79 62.166-4.868 1.19-9.948 1.834-15.182 1.834-35.346 0-64-28.654-64-64s28.654-64 64-64c5.234 0 10.314 0.644 15.182 1.834-28 6.828-48.79 32.064-48.79 62.166z" />
<glyph unicode="&#xe9cf;" d="M1023.998 448.003c0-282.768-229.229-511.997-511.997-511.997s-511.997 229.229-511.997 511.997c0 282.768 229.229 511.997 511.997 511.997s511.997-229.229 511.997-511.997z" />
<glyph unicode="&#xe9d0;" d="M440.637 461.141c47.57 0 95.14 0 142.706 0l0.78-9.754-69.74-105.726-74.916 106.77 1.168 8.704 0.002 0.006z" />
<glyph unicode="&#xe9d1;" d="M441.557 487.661l-1.236-59.638-101.18-55.328v-202.81h340.635v202.812l-94.032 58.446-5.164 59.628-139.022-3.108z" />
<glyph unicode="&#xe9d2;" d="M394.803 661.575c0 0-5.802 12.748-21.378 6.43-15.58-6.31 0.7-69.302 6.654-78.090 5.948-8.784 15.526-3.206 19.014-2.858 4.96-37.552 5.402-63.434 20.434-79.268 14.238-14.992 46.834-45.546 64.006-56.202 11.63-2.456 20.306-3.898 28.468-4.33 8.158 0.432 16.842 1.878 28.468 4.33 17.17 10.65 49.772 41.21 64.006 56.202 15.028 15.834 15.474 41.71 20.434 79.268 3.488-0.35 13.066-5.926 19.014 2.858 5.952 8.788 22.234 71.782 6.654 78.090-15.58 6.32-21.378-6.43-21.378-6.43s15.398 49.466-11.972 98.156c-18.756 33.372-61.534 50.68-105.224 51.95-43.69-1.27-86.468-18.578-105.224-51.95-27.37-48.692-11.972-98.156-11.972-98.156h-0.004z" />
<glyph unicode="&#xe9d3;" d="M390.703 410.479l24.23 9.544 19.526 17.546 68.944-52.29h17.17l68.966 52.352 43.748-27.158 76.022-129.22-60.206-326.647c-43.642-12.104-89.618-18.6-137.116-18.6-38.738 0-76.46 4.33-112.736 12.48l-107.91 322.443 99.362 139.55z" />
<glyph unicode="&#xe9d4;" d="M611.177 426.817l-27.834 34.324-62.762-75.864 53.872-59.86 36.724 101.4z" />
<glyph unicode="&#xe9d5;" d="M412.769 427.421l27.87 33.72 62.766-75.864-56.012-59.244-34.624 101.388z" />
<glyph unicode="&#xe9d6;" d="M412.773 427.421l-184.488-59.994c-7.502-2.434-12.214-8.814-13.742-16.558l-54.25-274.917c36.534-34.55 78.16-63.756 123.626-86.42l26.97 88.018c0.314 1.010 1.274 1.64 2.324 1.514 1.046-0.124 1.842-0.962 1.9-2.020l3.894-103.376c59.562-24.27 124.71-37.662 192.998-37.662v34.324l-99.232 457.091z" />
<glyph unicode="&#xe9d7;" d="M412.773 427.421l-21.13-6.492-55.98-95.518 70.67-2.214-43.386-24.702 149.060-328.169-99.234 457.095z" />
<glyph unicode="&#xe9d8;" d="M611.177 426.817l184.544-59.39c7.514-2.418 12.21-8.814 13.738-16.558l54.252-274.921c-36.538-34.55-78.166-63.758-123.634-86.424l-26.974 88.022c-0.31 1.010-1.28 1.64-2.324 1.514-1.046-0.124-1.834-0.966-1.896-2.020l-3.884-103.376c-59.562-24.27-124.71-37.662-192.994-37.662h-0.004v34.324l99.176 456.491z" />
<glyph unicode="&#xe9d9;" d="M611.177 426.817l11.73-3.568 65.386-98.44-70.67-2.218 43.39-24.704-149.012-327.561 99.176 456.489z" />
<glyph unicode="&#xe9da;" d="M532.911-27.526c-6.222 0-11.266-5.032-11.266-11.232 0-6.21 5.048-11.24 11.266-11.24s11.266 5.032 11.266 11.24c0 6.204-5.048 11.232-11.266 11.232z" />
<glyph unicode="&#xe9db;" d="M615.755 646.847l10.856 0.38 3.494 12.388 10.226 10.204c6.754 50.856 8.744 130.006-41.734 127.722 0 0-4.552 57.712-95.602 46.4-91.056-11.316-132.196-70.096-127.294-119.136 4.898-49.040 2.924-54.98 2.924-54.98l10.226-10.208 1.542-14.092 8.93 0.564c0 0 2.8 18.862 5.602 27.158 2.804 8.294 1.926 25.086 1.926 25.086s107.548-6.852 136.612 30.118c17.95 22.83 59.174 62.388 61.25 7.604 0.616-16.246-5.424-40.596 6.134-58.318 11.562-17.724 4.904-30.886 4.904-30.886h0.004v-0.004z" />
<glyph unicode="&#xe9dc;" d="M512.001-29.67l29.072 133.808-19.756 263.761 10.764 4.594-11.506 12.782h-17.17l-11.8-12.484 11.076-4.894-19.262-265.895 28.582-131.672z" />
<glyph unicode="&#xe9dd;" d="M531.909-27.526c-5.666 0-10.266-4.58-10.266-10.23 0-5.656 4.598-10.24 10.266-10.24 5.662 0 10.266 4.582 10.266 10.24 0 5.648-4.604 10.23-10.266 10.23z" />
<glyph unicode="&#xe9de;" d="M692.791 141.866c-19.98 3.45-33.38 22.446-29.934 42.42 3.45 19.976 22.446 33.386 42.42 29.938 19.98-3.45 33.38-22.45 29.934-42.43-3.45-19.974-22.446-33.38-42.424-29.93l0.004 0.002z" />
<glyph unicode="&#xe9df;" d="M693.153 143.974c-18.816 3.25-31.436 21.13-28.186 39.952 3.25 18.818 21.136 31.44 39.956 28.194 18.816-3.25 31.436-21.14 28.186-39.956-3.25-18.822-21.136-31.436-39.956-28.186v-0.004z" />
<glyph unicode="&#xe9e0;" d="M695.781 159.188c-10.408 1.794-17.392 11.7-15.598 22.11 1.794 10.412 11.7 17.392 22.106 15.598 10.412-1.798 17.396-11.69 15.598-22.106-1.794-10.408-11.696-17.392-22.106-15.598v-0.004z" />
<glyph unicode="&#xe9e1;" d="M698.031 194.845l8.406-1.452 4.52 26.18-8.406 1.452-4.52-26.18z" />
<glyph unicode="&#xe9e2;" d="M416.481 134.604l15.752 3.126c6.694 1.332 12.236 5.27 15.774 10.558 3.528 5.288 5.062 11.914 3.73 18.61l-18.526 93.334c-6.994 35.22-34.546 53.18-66.030 57.162-12.064 1.526-24.712 0.97-36.966-1.456-12.264-2.426-24.152-6.738-34.714-12.752-27.508-15.668-46.046-42.756-39.044-78.032l18.526-93.338c1.332-6.694 5.278-12.232 10.562-15.77l0.014 0.004c5.288-3.538 11.906-5.062 18.6-3.734l15.744 3.126-1.288 6.492-15.748-3.126c-4.908-0.974-9.77 0.15-13.644 2.734l0.004 0.004c-3.876 2.596-6.772 6.658-7.748 11.562l-18.526 93.338c-6.354 32.010 10.632 56.682 35.802 71.008 9.948 5.67 21.166 9.736 32.746 12.034 11.58 2.294 23.504 2.812 34.868 1.376 28.818-3.642 54.018-19.962 60.356-51.91l18.53-93.338c0.97-4.904-0.154-9.762-2.742-13.644-2.596-3.872-6.658-6.768-11.568-7.738l-15.752-3.126 1.288-6.492v-0.010z" />
<glyph unicode="&#xe9e3;" d="M438.209 246.401l-2.83 14.256c-7.206 36.312-35.554 54.82-67.922 58.918-12.298 1.552-25.178 0.996-37.662-1.482-12.484-2.47-24.602-6.87-35.364-12.994-28.292-16.112-47.348-44.004-40.128-80.38l2.834-14.256 10.812 2.152-2.83 14.256c-6.134 30.916 10.336 54.786 34.722 68.672 9.748 5.548 20.74 9.53 32.094 11.782 11.35 2.254 23.040 2.76 34.174 1.354 27.922-3.528 52.334-19.3 58.464-50.164l2.83-14.256 10.806 2.142z" />
<glyph unicode="&#xe9e4;" d="M307.409 111.528l8.428 1.674c2.116-2.374 5.39-3.592 8.726-2.932 5.014 0.996 8.272 5.864 7.276 10.882-0.992 5.010-5.864 8.268-10.878 7.272-3.344-0.66-5.9-3.042-6.944-6.042l-8.422-1.67 1.82-9.18-0.006-0.004z" />
<glyph unicode="&#xe9e5;" d="M423.177 134.506l-8.418-1.674c-1.046-2.998-3.602-5.376-6.94-6.042-5.014-0.992-9.882 2.262-10.878 7.28-0.992 5.010 2.262 9.882 7.272 10.874 3.338 0.66 6.616-0.564 8.722-2.932l8.422 1.674 1.82-9.18z" />
<glyph unicode="&#xe9e6;" d="M334.917 318.935l-3.214 16.192-12.772-2.536 3.25-16.352c2.434 0.71 4.898 1.314 7.386 1.808 1.774 0.354 3.554 0.644 5.35 0.888z" />
<glyph unicode="&#xe9e7;" d="M321.133 120.538c1.516 0.3 2.502 1.78 2.2 3.29-0.3 1.518-1.768 2.506-3.29 2.206-1.518-0.3-2.502-1.776-2.2-3.29s1.772-2.506 3.29-2.2v-0.006z" />
<glyph unicode="&#xe9e8;" d="M404.439 137.106c1.514 0.3 2.496 1.776 2.196 3.286-0.3 1.522-1.768 2.506-3.29 2.206-1.518-0.3-2.502-1.776-2.2-3.294 0.296-1.516 1.772-2.5 3.294-2.198z" />
<glyph unicode="&#xe9e9;" d="M694.759 159.364c-9.846 1.698-16.448 11.060-14.752 20.912 1.698 9.842 11.054 16.448 20.902 14.746 9.846-1.698 16.452-11.060 14.752-20.902-1.702-9.846-11.064-16.452-20.906-14.756h0.004z" />
<glyph unicode="&#xe9ea;" d="M412.863 422.565c-0.282-0.004-99.72-0.828-82.924-87.824l-9.248-1.768c-18.934 98.076 91.748 98.98 92.062 98.984l0.11-9.392z" />
<glyph unicode="&#xe9eb;" d="M611.287 431.513c16.224-0.438 47.584-4.86 71.724-34.222 23.622-28.734 40.182-81.504 27.8-178.256l-9.322 1.178c11.986 93.644-3.502 144.064-25.73 171.108-21.718 26.422-50.036 30.404-64.686 30.798l0.22 9.394h-0.006z" />
<glyph unicode="&#xe9ec;" d="M519.281 373.493c117.646 0 213.014 95.37 213.014 213.014 0 203.646-213.014 358.487-213.014 358.487h0.594c0 0-213.014-154.842-213.014-358.487 0-117.646 95.37-213.014 213.014-213.014h-0.594z" />
<glyph unicode="&#xe9ed;" d="M519.279 944.996c0 0 0.122-0.088 0.296-0.218 0.176 0.13 0.296 0.218 0.296 0.218h-0.592z" />
<glyph unicode="&#xe9ee;" d="M519.873 373.493c-0.1 0-0.198 0.004-0.296 0.004-0.1 0-0.198-0.004-0.296-0.004h0.592z" />
<glyph unicode="&#xe9ef;" d="M732.295 586.509c0 199.472-204.34 352.095-212.718 358.269-1.818-1.338-12.832-9.554-29.008-23.66 58.392-50.924 183.71-178.406 183.71-334.609 0-107.7-79.934-196.718-183.71-210.998 9.484-1.306 19.166-1.998 29.008-2.012 117.506 0.158 212.718 95.464 212.718 213.010z" />
<glyph unicode="&#xe9f0;" d="M701.869 202.215v0c0-20.592-15.318-37.97-35.748-40.554l-254.314-32.154 108.006-12.996c100.812-12.13 202.882 7.864 291.667 57.134l98.942 54.906c19.282 10.7 24.936 35.81 12.104 53.742-10.73 14.992-30.876 19.768-47.192 11.184l-173.466-91.262z" />
<glyph unicode="&#xe9f1;" d="M910.42 228.553c17.168 9.528 23.494 30.47 15.622 47.608l-236.3-126.42-87.51 3.846-190.428-24.076 108.006-12.996c100.812-12.13 202.882 7.864 291.667 57.134l98.942 54.904z" />
<glyph unicode="&#xe9f2;" d="M660.993 243.091c22.574 0 40.876-18.302 40.876-40.876v0l96.332 50.68c18.596 9.782 25.102 33.214 14.212 51.182v0c-10.080 16.636-31.446 22.434-48.556 13.176l-137.038-74.164 34.174 0.002z" />
<glyph unicode="&#xe9f3;" d="M460.341 243.091l198.948 104.164c16.654 8.72 37.18 3.982 48.326-11.16v0c13.708-18.62 7.792-45.058-12.542-56.062l-68.258-36.94-166.474-0.002z" />
<glyph unicode="&#xe9f4;" d="M124.122 180.652c0 0 74.424 62.842 166.646 79.986 92.222 17.142 169.574-17.546 169.574-17.546h200.65c22.574 0 40.876-18.302 40.876-40.876v0c0-20.592-15.318-37.97-35.748-40.554l-254.314-32.154 108.006-12.996c100.812-12.13 202.882 7.864 291.667 57.134l135.132 74.99c18.36 9.664 41.016 4.61 53.524-11.946v0c15.61-20.66 9.192-50.366-13.554-62.74l-197.598-107.49c-99.044-53.88-211.8-124.51-324.103-114.502l-340.757 30.368h-108.82v198.326h108.82z" />
<glyph unicode="&#xe9f5;" d="M1000.134 236.691c-0.85 1.126-1.756 2.188-2.698 3.206-3.014-10.416-9.998-19.738-20.428-25.41l-197.598-107.49c-99.042-53.878-211.8-124.51-324.103-114.502l-340.757 30.366h-99.248v-40.538h108.822l340.759-30.366c112.304-10.008 225.062 60.624 324.103 114.502l197.598 107.49c22.742 12.376 29.16 42.082 13.55 62.742z" />
<glyph unicode="&#xe9f6;" d="M626.819 243.091l68.258 36.94c17.692 9.574 24.46 30.828 16.894 48.456l-156.028-85.396h70.876z" />
<glyph unicode="&#xe9f7;" d="M701.869 202.215v0l96.332 50.68c16.090 8.466 23.102 27.146 17.654 43.666l-125.118-66.366c6.882-7.314 11.132-17.142 11.132-27.98z" />
<glyph unicode="&#xe9f8;" d="M605.037 666.125h-45.994v45.996c0 7.066-5.728 12.796-12.796 12.796h-45.746c-7.066 0-12.794-5.728-12.794-12.796v-45.996h-45.996c-7.066 0-12.794-5.728-12.794-12.794v-45.748c0-7.066 5.728-12.794 12.794-12.794h45.996v-45.994c0-7.066 5.728-12.796 12.794-12.796h45.748c7.066 0 12.796 5.728 12.796 12.796v45.994h45.994c7.066 0 12.796 5.728 12.796 12.794v45.748c-0.002 7.064-5.73 12.794-12.798 12.794z" />
<glyph unicode="&#xe9f9;" d="M781.814 79.64c-10.164-5.532-20.476-11.238-30.914-17.012-88.334-48.89-188.45-104.3-284.689-95.726l-173.756 15.484c-8.25 0.754-15.54-5.358-16.276-13.614-0.736-8.254 5.36-15.54 13.614-16.276l173.754-15.484c7.68-0.684 15.342-1.012 23.006-1.012 97.52 0 193.488 53.112 278.875 100.37 10.374 5.742 20.622 11.412 30.724 16.908 7.28 3.962 9.968 13.072 6.010 20.35-3.958 7.282-13.068 9.97-20.348 6.012z" />
<glyph unicode="&#xe9fa;" d="M1012.104 245.737c-15.968 21.136-43.798 28.426-67.81 18.378-0.614 9.594-3.87 18.944-9.568 26.91-15.014 20.982-43.548 27.742-66.38 15.73l-35.758-18.814c-0.458 8.382-2.934 16.63-7.348 23.912-14.248 23.51-44.348 31.678-68.528 18.596l-26.738-14.47c-0.48 10.368-3.998 20.48-10.276 29.008-15.648 21.258-43.98 27.802-67.37 15.556l-192.784-100.936c-21.658 8.302-90.772 30.79-171.52 15.778-83.312-15.486-151.526-65.766-169.216-79.732h-103.508c-8.286 0-15.004-6.718-15.004-15.004v-198.326c0-8.286 6.718-15.004 15.004-15.004h108.152l114.692-10.22c0.452-0.040 0.902-0.060 1.348-0.060 7.684 0 14.232 5.872 14.926 13.674 0.736 8.252-5.36 15.54-13.614 16.276l-115.356 10.28c-0.442 0.040-0.886 0.060-1.332 0.060h-93.812v168.318h93.816c3.538 0 6.966 1.256 9.67 3.534 0.716 0.604 72.68 60.528 159.716 76.706 86.206 16.022 159.98-16.168 160.694-16.486 0.3-0.134 0.61-0.24 0.918-0.356 0.13-0.048 0.254-0.104 0.386-0.148 0.68-0.232 1.378-0.408 2.084-0.54 0.162-0.030 0.326-0.054 0.49-0.078 0.748-0.114 1.5-0.192 2.26-0.192h200.65c0.892 0 1.772-0.046 2.64-0.134 13.030-1.326 23.228-12.364 23.228-25.738 0-13.002-9.726-24.036-22.626-25.668l-254.312-32.154c-0.94-0.118-1.848-0.322-2.722-0.604-6.112-1.966-10.418-7.698-10.398-14.328 0.002-0.946 0.094-1.874 0.266-2.776 1.202-6.308 6.364-11.284 12.946-12.076l108.006-12.996c0.032-0.004 0.064-0.006 0.096-0.010 2.922-0.352 5.846-0.67 8.766-0.968 0.906-0.094 1.812-0.178 2.718-0.266 2.122-0.206 4.246-0.4 6.366-0.578 0.956-0.080 1.912-0.162 2.868-0.236 2.396-0.188 4.794-0.358 7.188-0.512 0.574-0.036 1.148-0.082 1.724-0.116 2.928-0.178 5.856-0.328 8.78-0.454 0.826-0.036 1.652-0.062 2.478-0.094 2.15-0.082 4.3-0.154 6.448-0.208 1.006-0.026 2.012-0.048 3.016-0.068 2.14-0.042 4.28-0.068 6.416-0.082 0.834-0.006 1.668-0.018 2.502-0.018 0.266 0 0.532-0.006 0.798-0.006 2.684 0 5.368 0.022 8.048 0.066 0.556 0.010 1.11 0.028 1.666 0.040 2.414 0.046 4.826 0.108 7.236 0.192 1.060 0.036 2.12 0.082 3.18 0.126 1.934 0.078 3.868 0.166 5.8 0.268 1.13 0.058 2.258 0.12 3.386 0.188 1.956 0.116 3.914 0.246 5.866 0.386 1.024 0.072 2.048 0.14 3.072 0.22 2.77 0.214 5.54 0.448 8.306 0.71 0.392 0.036 0.782 0.076 1.174 0.114 2.676 0.26 5.35 0.542 8.020 0.844 1.040 0.118 2.078 0.248 3.116 0.372 1.916 0.23 3.834 0.468 5.746 0.72 1.132 0.15 2.264 0.304 3.396 0.46 1.89 0.262 3.782 0.538 5.668 0.824 1.060 0.16 2.122 0.316 3.182 0.482 2.344 0.37 4.686 0.758 7.026 1.162 0.568 0.098 1.14 0.188 1.708 0.288 2.852 0.502 5.702 1.034 8.546 1.586 0.966 0.188 1.93 0.388 2.894 0.582 1.944 0.39 3.888 0.788 5.828 1.2 1.106 0.236 2.21 0.478 3.314 0.72 1.852 0.408 3.702 0.828 5.55 1.258 1.066 0.248 2.134 0.494 3.2 0.75 2.14 0.512 4.276 1.044 6.408 1.586 0.73 0.186 1.464 0.362 2.194 0.55 2.814 0.728 5.624 1.484 8.428 2.262 0.848 0.236 1.692 0.484 2.538 0.724 2.010 0.57 4.020 1.148 6.024 1.744 1.050 0.312 2.098 0.632 3.146 0.952 1.846 0.562 3.69 1.136 5.53 1.72 1.034 0.328 2.066 0.656 3.098 0.99 2.034 0.66 4.066 1.34 6.094 2.028 0.788 0.268 1.576 0.526 2.362 0.796 2.78 0.958 5.554 1.942 8.32 2.95 0.648 0.236 1.294 0.484 1.942 0.724 2.148 0.794 4.294 1.6 6.432 2.424 0.966 0.372 1.928 0.752 2.892 1.132 1.86 0.73 3.72 1.472 5.574 2.226 0.978 0.398 1.956 0.796 2.932 1.2 1.978 0.82 3.952 1.654 5.922 2.5 0.788 0.338 1.578 0.67 2.366 1.012 2.744 1.194 5.484 2.412 8.21 3.66 0.33 0.15 0.656 0.308 0.986 0.458 2.396 1.1 4.786 2.222 7.168 3.362 0.86 0.412 1.716 0.832 2.574 1.248 1.884 0.916 3.766 1.842 5.642 2.782 0.918 0.46 1.834 0.922 2.75 1.388 1.92 0.976 3.834 1.968 5.744 2.972 0.784 0.412 1.572 0.818 2.356 1.236 2.674 1.422 5.344 2.862 7.998 4.338l98.94 54.908c0.006 0.002 0.010 0.006 0.014 0.008l36.012 19.986c11.892 6.18 26.352 2.92 34.436-7.78 4.806-6.36 6.596-14.474 4.914-22.264s-6.664-14.442-13.664-18.25l-153.33-83.408c-7.28-3.96-9.968-13.072-6.010-20.35 3.958-7.28 13.068-9.968 20.35-6.010l153.33 83.408c14.682 7.988 25.128 21.938 28.656 38.274 3.55 16.34-0.206 33.358-10.282 46.696zM882.318 280.199c9.632 5.068 21.672 2.214 28.002-6.636 3.686-5.146 4.948-11.382 3.556-17.554-1.39-6.174-5.204-11.264-10.738-14.334l-98.942-54.908c-79.624-44.186-168.698-63.908-258.943-57.596-3.37 0.236-6.744 0.498-10.116 0.806l132.864 16.798c1.418 0.18 2.812 0.424 4.194 0.706 0.186 0.038 0.372 0.070 0.558 0.11 1.306 0.28 2.592 0.612 3.862 0.982 0.23 0.068 0.462 0.136 0.692 0.206 1.252 0.382 2.484 0.804 3.696 1.27 0.202 0.078 0.402 0.162 0.604 0.242 1.242 0.494 2.466 1.022 3.664 1.6 0.086 0.042 0.172 0.088 0.258 0.132 1.174 0.576 2.322 1.194 3.448 1.848 0.128 0.074 0.26 0.144 0.388 0.22 1.116 0.66 2.2 1.364 3.262 2.098 0.194 0.134 0.388 0.266 0.578 0.4 1.030 0.73 2.032 1.492 3.008 2.288 0.186 0.152 0.368 0.306 0.552 0.46 0.98 0.82 1.936 1.666 2.856 2.548 0.122 0.116 0.236 0.238 0.356 0.354 0.908 0.888 1.788 1.802 2.634 2.748 0.068 0.076 0.14 0.15 0.208 0.226 0.856 0.968 1.67 1.974 2.46 3 0.14 0.182 0.284 0.362 0.422 0.548 0.748 0.998 1.46 2.024 2.14 3.070 0.142 0.218 0.28 0.436 0.418 0.654 0.668 1.060 1.306 2.14 1.904 3.246 0.104 0.192 0.2 0.388 0.302 0.582 0.61 1.16 1.19 2.336 1.718 3.544 0.024 0.058 0.048 0.116 0.072 0.172 0.514 1.184 0.98 2.394 1.414 3.62 0.070 0.198 0.146 0.394 0.214 0.592 0.412 1.206 0.776 2.43 1.104 3.672 0.068 0.254 0.134 0.508 0.198 0.762 0.31 1.236 0.58 2.488 0.806 3.756 0.018 0.096 0.046 0.19 0.062 0.288l89.124 46.89c0.012 0.006 0.024 0.014 0.036 0.020l77.106 40.57zM770.994 304.057c10.086 5.458 22.638 2.050 28.582-7.754 3.098-5.118 3.926-11.11 2.324-16.874-1.6-5.764-5.398-10.472-10.692-13.254l-79.020-41.574c-0.14 0.318-0.296 0.626-0.442 0.942-0.188 0.41-0.376 0.82-0.574 1.224-0.21 0.428-0.432 0.85-0.654 1.274-0.208 0.398-0.416 0.794-0.632 1.186-0.23 0.416-0.47 0.826-0.71 1.234-0.228 0.388-0.456 0.772-0.694 1.154-0.248 0.4-0.506 0.796-0.764 1.19-0.248 0.376-0.496 0.75-0.752 1.12-0.266 0.386-0.538 0.766-0.814 1.144-0.268 0.366-0.538 0.73-0.814 1.088-0.282 0.368-0.568 0.732-0.86 1.094-0.286 0.356-0.578 0.706-0.874 1.052-0.298 0.352-0.598 0.702-0.906 1.046-0.304 0.342-0.616 0.678-0.93 1.014-0.312 0.334-0.628 0.668-0.948 0.994-0.324 0.33-0.656 0.652-0.988 0.974-0.326 0.316-0.65 0.63-0.984 0.938-0.346 0.318-0.698 0.628-1.050 0.936-0.336 0.296-0.672 0.592-1.014 0.88-0.368 0.306-0.742 0.602-1.118 0.9-0.344 0.272-0.684 0.548-1.034 0.814-0.392 0.296-0.792 0.578-1.192 0.864-0.348 0.25-0.694 0.504-1.050 0.746-0.418 0.286-0.848 0.556-1.274 0.83-0.348 0.224-0.69 0.454-1.044 0.67-0.466 0.286-0.944 0.554-1.42 0.826-0.326 0.186-0.646 0.382-0.974 0.56-0.602 0.328-1.218 0.638-1.834 0.944-0.214 0.106-0.422 0.222-0.636 0.326-0.83 0.4-1.67 0.78-2.522 1.14-0.312 0.132-0.632 0.248-0.946 0.374-0.55 0.22-1.098 0.444-1.658 0.648-0.042 0.016-0.084 0.034-0.126 0.048l22.268 12.052c0.010 0.006 0.018 0.010 0.028 0.016l68.742 37.214zM666.247 333.961c3.44 1.8 7.122 2.666 10.76 2.666 7.108 0 14.024-3.314 18.526-9.428 4.018-5.456 5.416-12.104 3.938-18.716s-5.576-12.032-11.536-15.254l-64.916-35.132h-101.67l144.898 75.864z" />
<glyph unicode="&#xe9fb;" d="M546.247 739.918h-45.746c-15.328 0-27.798-12.47-27.798-27.8v-30.99h-30.99c-15.328 0-27.798-12.47-27.798-27.8v-45.748c0-15.328 12.47-27.798 27.798-27.798h30.99v-30.988c0-15.328 12.47-27.8 27.798-27.8h45.746c15.328 0 27.798 12.47 27.798 27.8v30.988h30.99c15.328 0 27.8 12.47 27.8 27.798v45.748c0 15.328-12.47 27.8-27.8 27.8h-30.99v30.99c0 15.328-12.468 27.8-27.798 27.8zM602.827 651.121v-41.328h-43.786c-8.288 0-15.004-6.718-15.004-15.004v-43.784h-41.326v43.784c0 8.286-6.718 15.004-15.004 15.004h-43.784v41.328h43.784c8.286 0 15.004 6.718 15.004 15.004v43.784h41.326v-43.784c0-8.286 6.716-15.004 15.004-15.004h43.786z" />
<glyph unicode="&#xe9fc;" d="M519.075 358.489c0.068 0 0.136 0 0.206 0h0.594c0.068 0 0.136 0 0.204 0 125.362 0.436 227.22 102.558 227.22 228.020 0 86.808-38.026 178.51-109.968 265.193-47.084 56.732-93.646 93.628-106.084 103.080-2.79 3.242-6.908 5.218-11.374 5.218h-0.594c-4.46 0-8.568-1.97-11.358-5.204-16.060-12.188-88.588-69.734-145.592-156.2-4.562-6.918-2.65-16.224 4.27-20.786 6.918-4.564 16.222-2.65 20.786 4.27 48.090 72.942 109.358 125.446 132.198 143.712 17.262-13.794 56.428-47.082 95.13-93.82 84.784-102.404 102.582-190.008 102.582-245.466 0-109.084-88.668-197.848-197.714-198.012-109.048 0.162-197.714 88.928-197.714 198.012 0 50.534 13.948 102.672 41.458 154.962 3.858 7.332 1.040 16.406-6.294 20.264-7.334 3.856-16.406 1.040-20.264-6.294-29.798-56.644-44.908-113.482-44.908-168.934-0.006-125.458 101.854-227.58 227.216-228.016z" />
<glyph unicode="&#xe9fd;" glyph-name="loader" d="M655.749 840.229c0-66.148-53.623-119.771-119.771-119.771s-119.771 53.623-119.771 119.771c0 66.148 53.623 119.771 119.771 119.771s119.771-53.623 119.771-119.771zM607.832 7.855c0-39.684-32.171-71.855-71.855-71.855s-71.855 32.171-71.855 71.855c0 39.684 32.171 71.855 71.855 71.855s71.855-32.171 71.855-71.855zM349.481 718.359c0-59.537-48.264-107.802-107.802-107.802s-107.802 48.264-107.802 107.802c0 59.537 48.264 107.802 107.802 107.802s107.802-48.264 107.802-107.802zM890.161 129.802c0-33.074-26.812-59.886-59.886-59.886s-59.886 26.812-59.886 59.886c0 33.074 26.812 59.886 59.886 59.886s59.886-26.812 59.886-59.886zM215.565 424.022c0-52.905-42.888-95.794-95.794-95.794s-95.794 42.888-95.794 95.794c0 52.905 42.888 95.794 95.794 95.794s95.794-42.888 95.794-95.794zM1000.022 424.061c0-26.442-21.435-47.877-47.877-47.877s-47.877 21.435-47.877 47.877c0 26.442 21.435 47.877 47.877 47.877s47.877-21.435 47.877-47.877zM182.416 188.988c-32.76-32.76-32.76-85.767 0-118.528 32.721-32.76 85.806-32.76 118.528 0 32.76 32.76 32.76 85.767 0 118.528-32.721 32.799-85.767 33.11-118.528 0zM866.145 718.359c0-19.831-16.077-35.908-35.908-35.908s-35.908 16.077-35.908 35.908c0 19.831 16.077 35.908 35.908 35.908s35.908-16.077 35.908-35.908z" />
<glyph unicode="&#xe9fe;" glyph-name="quote" d="M307.056 847.761l-29.71 21.040-1.019 0.766-1.914 0.766-21.678 10.327 0.638-1.529c-20.53 8.417-42.079 14.408-65.542 14.408-103.798 0-187.832-87.348-187.832-195.098s84.158-195.098 187.832-195.098c33.281 0 64.014 9.689 91.172 25.501-9.308-104.307-61.847-256.435-254.393-411.621-26.905-21.678-31.88-61.971-10.965-89.9 12.241-16.45 30.476-24.867 48.84-24.867 13.26 0 26.524 4.461 37.87 13.388 236.286 190.765 295.325 386.625 303.233 517.456 13.517 167.302-37.233 255.288-83.649 301.191l-12.883 13.268zM937.876 834.501l-13.007 13.26-29.585 21.040-1.019 0.766-2.042 0.766-21.678 10.327 0.638-1.529c-20.53 8.417-42.208 14.408-65.671 14.408-103.669 0-187.575-87.348-187.575-195.098s83.906-195.098 187.832-195.098c33.281 0 64.014 9.689 91.172 25.501-9.18-104.307-61.719-256.435-254.265-411.621-27.034-21.678-31.88-61.971-10.965-89.9 12.241-16.45 30.476-24.867 48.84-24.867 13.26 0 26.524 4.461 37.87 13.388 236.415 190.765 295.325 386.625 303.361 517.456 13.517 167.306-37.233 255.292-83.906 301.199z" />
<glyph unicode="&#xe9ff;" glyph-name="tick" d="M512-64c282.31 0 512 229.69 512 512s-229.69 512-512 512-512-229.69-512-512 229.69-512 512-512zM512 908.842c254.121 0 460.842-206.721 460.842-460.842s-206.721-460.842-460.842-460.842-460.842 206.721-460.842 460.842 206.721 460.842 460.842 460.842zM431.191 230.003c4.803-4.803 11.276-7.517 18.166-7.517v0c6.682 0 13.155 2.715 17.958 7.517l307.993 306.323c4.803 4.803 7.517 11.276 7.517 18.166 0 6.682-2.715 13.364-7.517 18.166l-93.129 93.546c-10.023 10.023-26.101 10.023-36.124 0.209l-196.281-195.237-71.413 71.83c-4.803 4.803-11.276 7.517-18.166 7.517v0c-6.682 0-13.155-2.715-17.958-7.517l-93.546-93.129c-4.803-4.803-7.517-11.276-7.517-18.166 0-6.682 2.715-13.364 7.517-18.166l182.499-183.543zM360.196 488.718l71.622-72.039c10.023-10.023 26.101-10.023 36.124-0.209l196.281 195.237 57.005-57.214-271.661-270.199-146.584 147.419 57.214 57.005z" />
<glyph unicode="&#xea00;" glyph-name="magnifying-glass" d="M1015.031-11.778l-248.848 248.848c66.753 76.743 107.168 176.873 107.168 286.311 0 240.901-195.945 436.619-436.619 436.619-240.901 0-436.619-195.945-436.619-436.619s195.945-436.619 436.619-436.619c109.439 0 209.568 40.415 286.311 107.168l248.848-248.848c5.903-5.903 13.85-9.082 21.57-9.082s15.667 2.952 21.57 9.082c11.807 11.807 11.807 31.333 0 43.14zM61.19 523.381c0 207.071 168.472 375.315 375.315 375.315 207.071 0 375.315-168.472 375.315-375.315s-168.245-375.542-375.315-375.542c-206.843 0-375.315 168.472-375.315 375.542z" />
<glyph unicode="&#xea01;" glyph-name="water" d="M606.586 847.103c-23.647 34.775-44.512 66.768-63.986 95.979-2.782 4.173-6.955 8.346-11.128 11.128-16.692 11.128-38.948 5.564-50.076-11.128-18.083-29.211-38.948-59.813-63.986-95.979-109.889-161.356-274.026-404.78-274.026-543.88 0-101.543 41.73-193.349 108.498-260.116 66.768-65.377 158.574-107.107 260.116-107.107s193.349 41.73 260.116 108.498c66.768 66.768 108.498 158.574 108.498 260.116 0 139.1-164.138 381.133-274.026 542.489zM722.039 94.574c-54.249-54.249-127.972-86.242-210.041-86.242s-155.792 33.384-210.041 86.242c-54.249 54.249-86.242 127.972-86.242 210.041 0 116.844 157.183 349.14 261.507 503.541 12.519 18.083 23.647 36.166 34.775 51.467 11.128-15.301 22.256-33.384 34.775-51.467 104.325-155.792 261.507-386.697 261.507-503.541 0-82.069-33.384-155.792-86.242-210.041zM727.603 329.652c-19.474 1.391-36.166-13.91-37.557-33.384-1.391-30.602-11.128-59.813-26.429-84.851s-37.557-47.294-63.986-61.204c-16.692-9.737-23.647-31.993-13.91-48.685 11.128-19.474 33.384-25.038 50.076-15.301 37.557 20.865 68.159 51.467 89.024 86.242 22.256 34.775 34.775 76.505 36.166 119.626 1.391 19.474-13.91 36.166-33.384 37.557z" />
<glyph unicode="&#xea02;" glyph-name="balloon" d="M319.605 366.125c8.474-0.017 15.674 6.191 16.907 14.582 1.233 8.383-3.875 16.399-11.991 18.832-35.256 10.574-73.537 49.28-105.059 106.143-4.566 8.249-14.949 11.233-23.198 6.666s-11.233-14.957-6.666-23.198c35.839-64.596 81.403-109.226 125.091-122.291 1.592-0.483 3.25-0.733 4.916-0.733zM495.843 745.382c10.558-23.773 16.066-49.48 16.191-75.495 0-9.424 7.641-17.065 17.065-17.065s17.065 7.641 17.065 17.065c-0.117 30.69-6.591 61.021-19.007 89.085-15.816 37.006-41.030 69.245-73.145 93.518-7.541 5.65-18.232 4.125-23.89-3.416s-4.125-18.24 3.408-23.89c27.381-20.707 48.855-48.222 62.312-79.803zM341.379 857.607c15.557-0.058 30.998-2.683 45.705-7.766 8.924-3.033 18.624 1.742 21.657 10.666s-1.742 18.624-10.666 21.657c-18.249 6.283-37.397 9.516-56.696 9.574-9.424 0-17.065-7.641-17.065-17.065s7.641-17.065 17.065-17.065zM665.831 262.957c-35.256 10.583-73.537 49.288-105.059 106.151-4.566 8.249-14.949 11.233-23.198 6.666s-11.233-14.957-6.666-23.207c35.839-64.587 81.403-109.217 125.091-122.283 5.875-1.875 12.299-0.433 16.807 3.766s6.4 10.508 4.958 16.491c-1.442 5.991-6.008 10.741-11.933 12.416zM795.322 715.967c-7.541 5.65-18.232 4.125-23.89-3.416s-4.125-18.24 3.408-23.89c27.348-20.69 48.822-48.163 62.279-79.694 10.583-23.807 16.107-49.555 16.224-75.603 0-9.424 7.641-17.065 17.065-17.065s17.065 7.641 17.065 17.065c-0.117 30.69-6.591 61.021-19.007 89.085-15.816 37.006-41.030 69.245-73.145 93.518zM739.384 745.64c-18.249 6.283-37.397 9.516-56.696 9.574-9.424 0-17.065-7.641-17.065-17.065s7.641-17.065 17.065-17.065c15.557-0.058 30.998-2.683 45.705-7.766 8.924-3.033 18.624 1.742 21.657 10.666s-1.742 18.624-10.666 21.657zM682.455 823.476h-0.275c-34.423-0.158-68.42-7.566-99.785-21.74-43.872 94.152-137.182 155.423-241.017 158.264-145.448 0-273.048-135.566-273.048-290.113 0-133.674 91.744-315.37 212.277-363.016l-7.249-43.755c-0.825-4.95 0.575-10.008 3.816-13.832 3.233-3.825 7.999-6.033 13.007-6.033h27.515l-10.808-32.423c-11.766-34.989-6.591-73.47 14.016-104.101l12.674-19.007c14.682-21.882 18.365-49.347 9.966-74.328l-18.29-54.913c-2.983-8.958 1.867-18.624 10.816-21.607 8.958-2.975 18.632 1.867 21.607 10.824l18.19 54.93c11.774 34.989 6.6 73.47-14.007 104.101l-12.682 19.007c-14.699 21.882-18.39 49.347-9.983 74.328l14.474 43.189h38.906c5.016 0 9.774 2.208 13.016 6.033s4.633 8.883 3.816 13.832l-7.258 43.722c20.815 8.358 40.239 19.824 57.613 34.014 35.839-71.937 92.394-143.098 162.122-170.746l-7.216-43.514c-0.825-4.95 0.575-10.008 3.816-13.832 3.233-3.825 7.999-6.033 13.007-6.033h27.515l-10.808-32.423c-11.766-34.989-6.591-73.47 14.016-104.101l12.657-18.974c1.367-2.050 2.633-4.166 3.808-6.3 2.991-5.491 8.749-8.899 14.999-8.891 2.85 0 5.65 0.725 8.141 2.1 8.274 4.508 11.333 14.866 6.825 23.14-1.708 3-3.408 5.958-5.358 8.858l-12.674 19.007c-14.707 21.873-18.39 49.347-9.991 74.32l14.357 43.264h38.906c5.016 0 9.774 2.208 13.016 6.033s4.633 8.883 3.816 13.832l-7.174 43.205c48.88 19.082 95.385 60.879 134.824 122.433 47.088 72.112 73.82 155.606 77.37 241.658-0.358 154.364-127.991 289.588-273.281 289.588zM102.462 669.887c0 136.374 111.642 255.982 238.917 255.982 91.627 0 176.838-60.187 217.127-153.398 14.266-32.331 21.682-67.254 21.79-102.585-0.033-12.557-0.858-25.090-2.475-37.547-1.975-14.899-4.825-29.673-8.533-44.247-19.065-78.278-58.954-149.94-115.425-207.394-21.307-21.232-47.28-37.181-75.845-46.588-17.799-5.525-36.622-6.95-55.055-4.166-6.208 0.942-12.332 2.342-18.34 4.183-111.967 33.698-202.161 211.185-202.161 335.76zM310.322 277.381l3.241 19.574c1.008-0.183 2-0.242 3-0.408 1.008-0.175 2.491-0.325 3.741-0.492 6.891-1.008 13.841-1.542 20.807-1.608h0.542c6.958 0.058 13.899 0.592 20.79 1.583 1.242 0.175 2.508 0.292 3.75 0.5 1.25 0.2 2 0.217 3.008 0.408l3.241-19.557zM713.753 140.857h-62.121l3.241 19.574c1.925-0.342 3.858-0.508 5.766-0.783 1.608-0.225 3.191-0.458 4.8-0.65 5.725-0.667 11.483-1.025 17.249-1.075h0.467c9.149 0.025 18.29 0.85 27.298 2.458zM849.693 310.662c-38.514-60.037-84.919-99.618-131.283-113.25-5.366-1.6-10.833-2.841-16.366-3.716l-2.292-0.325c-11.374-1.617-22.923-1.617-34.298 0-1.433 0.2-2.816 0.542-4.233 0.8-4.666 0.792-9.291 1.842-13.841 3.141-69.27 19.832-126.575 94.093-161.197 167.238 1.017 1.025 1.992 2.183 2.983 3.225 2.133 2.242 4.233 4.525 6.333 6.825 2.491 2.758 4.958 5.558 7.408 8.416 2.075 2.441 4.108 4.916 6.141 7.441 2.391 2.933 4.741 5.925 7.066 8.974 2 2.633 3.983 5.291 5.933 7.991 2.283 3.1 4.5 6.25 6.658 9.433 1.933 2.8 3.825 5.616 5.7 8.533 2.133 3.241 4.216 6.541 6.283 9.866 1.825 2.933 3.633 5.891 5.408 8.891 2 3.416 3.941 6.825 5.858 10.241 1.7 3.091 3.408 6.158 5.116 9.266 1.858 3.416 3.65 7 5.425 10.508 1.608 3.175 3.191 6.333 4.733 9.524 1.7 3.6 3.408 7.224 5.016 10.841 1.45 3.225 2.916 6.433 4.316 9.674 1.567 3.666 3.050 7.374 4.558 11.074 1.292 3.258 2.625 6.5 3.866 9.766 1.417 3.75 2.733 7.508 4.066 11.274 1.158 3.258 2.333 6.525 3.416 9.799 1.258 3.825 2.4 7.624 3.566 11.466 0.983 3.225 1.992 6.45 2.916 9.674 1.092 3.875 2.050 7.749 3.033 11.641 0.808 3.158 1.708 6.316 2.392 9.474 0.925 3.975 1.708 7.899 2.491 11.841 0.617 3.041 1.3 6.091 1.842 9.116 0.733 4.125 1.3 8.191 1.9 12.266 0.408 2.8 0.917 5.616 1.258 8.399 0.567 4.5 0.925 8.941 1.3 13.374 0.2 2.292 0.492 4.608 0.65 6.833 0.425 6.65 0.658 13.241 0.658 19.707 0 9.266-0.542 18.515-1.45 27.715-0.308 3.041-0.85 6.058-1.242 9.083-0.817 6.175-1.708 12.332-2.916 18.457-0.7 3.533-1.592 7.050-2.425 10.566-1.35 5.633-2.8 11.233-4.475 16.807-1.092 3.591-2.267 7.174-3.5 10.741-0.867 2.541-1.533 5.116-2.475 7.624 27.115 12.149 56.488 18.44 86.202 18.449h0.242c127.116 0 238.917-119.342 239.167-255.507-3.458-79.503-28.298-156.606-71.912-223.176z" />
<glyph unicode="&#xea03;" glyph-name="user" d="M749.449 722.551c0-131.14-106.31-237.449-237.449-237.449s-237.449 106.31-237.449 237.449c0 131.14 106.31 237.449 237.449 237.449s237.449-106.31 237.449-237.449zM512 366.377c-237.691 0-430.377-192.686-430.377-430.377h860.754c0 237.691-192.686 430.377-430.377 430.377z" />
<glyph unicode="&#xea04;" glyph-name="add" d="M1024 472.381h-487.619v487.619h-48.762v-487.619h-487.619v-48.762h487.619v-487.619h48.762v487.619h487.619z" />
</font>
</defs>
</svg>
